<?xml version="1.0" encoding="UTF-8" standalone="no"?>
<svg
   xmlns:dc="http://purl.org/dc/elements/1.1/"
   xmlns:cc="http://creativecommons.org/ns#"
   xmlns:rdf="http://www.w3.org/1999/02/22-rdf-syntax-ns#"
   xmlns:svg="http://www.w3.org/2000/svg"
   xmlns="http://www.w3.org/2000/svg"
   id="svg52"
   xml:space="preserve"
   viewBox="0 0 571.06018 247.11755"
   height="247.11755"
   width="571.06018"
   y="0px"
   x="0px"
   version="1.1"><metadata
   id="metadata58"><rdf:RDF><cc:Work
       rdf:about=""><dc:format>image/svg+xml</dc:format><dc:type
         rdf:resource="http://purl.org/dc/dcmitype/StillImage" /><dc:title></dc:title></cc:Work></rdf:RDF></metadata><defs
   id="defs56" />
<style
   id="style2"
   type="text/css">
	.st0{display:none;}
	.st1{display:inline;}
	.st2{fill:#49BCF8;}
	.st3{display:inline;fill:#555555;}
	.st4{fill:#EF3384;}
	.st5{display:inline;fill:#AAAAAA;}
	.st6{fill:#555555;}
	.st7{fill:#BFBFBF;}
</style>
<g
   transform="translate(-10.178192,-69.78245)"
   style="display:none"
   class="st0"
   id="outlined">
	<g
   style="display:inline"
   id="g6"
   class="st1">
		<path
   style="fill:#49bcf8"
   id="path4"
   d="m 160.9,251.7 c -1.7,2.2 -4.5,2.8 -6.5,2.9 -5.3,0.3 -11.8,-2.3 -15.5,-6.2 -7,-7.3 -11.9,-20 -13.4,-34.7 -0.2,-1.6 -0.4,-3.4 -0.6,-5.3 -2.2,-19.3 -6.2,-55.2 12.1,-63.5 8.1,-0.6 13.7,5 19.7,10.8 0.4,0.4 0.8,0.8 1.2,1.2 -3.5,7.8 -5.7,15.9 -6.5,24.1 -0.8,9 0,18.4 2.4,27.9 l 2.5,10.3 c -0.7,0.4 -1.5,0.8 -2.2,1.3 -3.3,1.9 -6.7,3.8 -10.1,6 -1,0.6 -1.5,1.8 -1.3,2.9 0.2,1.1 0.9,2.1 2,2.4 3.4,1.1 8.1,1.5 13.1,1.5 1.8,0 3.6,-0.1 5.4,-0.1 1.3,2 2.7,3.9 4,5.4 0.8,1 1.6,1.8 2.5,2.6 -1.8,2.1 -5,5.7 -8.8,10.5 z"
   class="st2" />
	</g>
	<path
   style="display:inline;fill:#555555"
   id="path8"
   d="m 186.8,136.3 0.4,-0.2 30.8,-12 c 15.6,-6.1 26.1,-10.1 31.4,-12.2 l 0.2,-0.1 5.5,-1.7 -4.2,-2.1 C 225.1,95.1 194.7,93 167.4,102.2 l -0.5,0.2 c -0.2,0.1 -0.3,0.1 -0.5,0.2 10.9,8.1 18.3,20.2 20.4,33.7 z m 50.7,67.5 c -0.1,0 -0.2,0 -0.3,0.1 -14.4,2.5 -41,7.2 -59.8,7.2 h -0.2 c -5.9,6.8 -13.1,10.8 -20.1,14.7 -0.9,0.5 -1.9,1 -2.8,1.6 9.5,0.4 22.9,-1.1 31.1,-2.5 9.4,-1.7 29,-7.1 44.3,-15.3 2.4,-1.3 5.3,-3.5 7.8,-5.8 z m -29.3,50.5 c -0.2,0 -0.3,0 -0.5,-0.1 1.8,12.3 -1.8,25 -9.9,34.5 -0.3,0.4 -0.9,1 -1.6,1.9 21.7,-0.6 39.4,-3.1 52.6,-7.5 5.4,-1.8 12.6,-5.4 21.2,-10.7 3.9,-2.4 7.1,-5.5 9.6,-9.3 z"
   class="st3" />
	<g
   style="display:inline"
   id="g12"
   class="st1">
		<path
   style="fill:#ef3384"
   id="path10"
   d="m 554.1,155 c -7.8,10.3 -15.9,19.3 -24.1,26.8 -9.1,8.3 -18.6,15.1 -28.3,20.3 -0.5,-1.1 -0.9,-1.9 -1.2,-2.3 l -0.1,-0.2 c -12.8,-26 -16.7,-56 -11.1,-84.4 l 0.1,-0.4 c 0.1,-0.5 0.3,-1.4 0.5,-2.6 21.2,6.9 41.2,17.5 58.6,31.2 0,0 0.1,0.1 0.1,0.1 v 0 c 0,0 2.2,1.7 4.4,3.5 2.5,1.9 3,5.5 1.1,8 z"
   class="st4" />
	</g>
	<path
   style="display:inline;fill:#555555"
   id="path14"
   d="m 446.4,113.6 c 1.3,1 2.8,1.5 4.3,1.3 0.9,-0.1 2.1,-0.5 3.1,-1.7 0.2,-0.6 0.2,-1.1 0.1,-1.7 l -0.3,-0.7 c -1.1,-1.9 -3.5,-2.9 -5.5,-2.8 -1.7,0.1 -2.8,0.9 -3.2,2.4 -0.4,1.5 0.9,2.7 1.5,3.2 z M 410,195.2 c -3.1,-9.8 -5.4,-19.9 -6.7,-30 v 0 -0.2 c 0,-0.1 0,-0.2 0,-0.3 0,-0.1 0,-0.1 0,-0.2 0,-0.2 -0.1,-0.5 -0.1,-0.6 -0.3,-2.6 -0.4,-5.2 -0.3,-7.9 l 1.5,-43.5 c 0.2,-5.5 2.1,-10.8 5.4,-15.1 -9.8,-0.9 -19.6,-1.4 -29.4,-1.5 -4.2,4.1 -6.7,9.7 -6.9,15.6 -0.3,10.2 -0.9,35.3 -1.2,46.9 -0.1,2.6 0.1,5.2 0.4,7.8 0,0 0,0.1 0,0.1 v 0 c 1.5,11.3 4.1,22.4 7.7,33.1 l 8.3,24.6 c 2.5,7.3 6.3,13.9 11.3,19.8 9,-2.3 17.9,-4.9 26.7,-7.8 -4,-5.3 -7.1,-11.2 -9.2,-17.6 -2.5,-7.8 -5.3,-16.4 -7.5,-23.2 z m 58.9,18.8 c -0.8,-0.8 -2.5,-0.3 -3.4,0 -1.9,0.7 -3,1.9 -3,3.2 0,1.4 1.1,2.7 2.7,3.4 1.4,-0.6 2.8,-1.3 4.2,-1.9 0.6,-2.1 0.2,-4 -0.5,-4.7 z m -15.7,-50.7 c 0,0 -0.1,0 0,0 -2.2,-0.5 -5,0.6 -5.7,1.2 -1.1,1 -1.9,3 -2,4.1 v 0 c -0.1,1.4 0.5,2.9 1.6,3.8 1,0.4 3.3,1 4.4,0.9 1.8,-0.7 3.6,-2.6 4,-3.4 0.7,-1.3 0.9,-2.6 0.5,-3.9 -0.4,-1.2 -1.5,-2.2 -2.8,-2.7 z"
   class="st3" />
	<path
   style="display:inline;fill:#aaaaaa"
   id="path16"
   d="m 374.7,201.1 c -3.6,-10.7 -6.2,-21.8 -7.8,-33 v 0 c 0,-0.1 -0.1,-0.4 -0.1,-0.7 0,-0.1 0,-0.1 0,-0.2 0,-0.2 0,-0.3 -0.1,-0.5 -0.4,-2.9 -0.5,-5.8 -0.5,-8.7 0.3,-11.6 0.9,-36.7 1.2,-46.9 0.1,-5.5 1.9,-10.9 5,-15.4 -27.1,0.3 -54,3.7 -80.6,10.1 l -15.2,3.7 -25.4,8 c -5.3,2.1 -15.8,6.1 -31.3,12.2 l -30.2,11.7 -26,16.8 c -3.6,7.5 -5.8,15.4 -6.5,23.4 -0.8,8.3 0,17 2.2,25.9 l 2.1,8.5 c 4.3,-2.7 8.3,-5.8 11.7,-10 0.6,-0.7 1.5,-1.1 2.4,-1.1 18.4,0.3 45.7,-4.5 60.3,-7.1 5.5,-1 8.3,-1.4 9.5,-1.5 1.2,-0.1 2.3,0.5 2.8,1.5 0.5,1 0.5,2.3 -0.2,3.2 -2.4,3.4 -10.1,10.6 -15.8,13.7 -17.2,9.2 -37.7,14.4 -46.1,15.9 -0.1,0 -7.4,1.3 -16.2,2.1 0.5,0.7 1.1,1.4 1.6,2 2.7,3.2 5.3,5.1 7.6,5.7 l 0.3,0.1 0.3,0.1 c 4,2 8.4,3.7 13.2,4.9 4.8,1.3 10.1,2.2 15.7,2.7 l 76.1,9.5 c 38.1,-0.3 74.5,-4.6 108.4,-12.7 -4.6,-5.8 -8.1,-12.4 -10.5,-19.5 z m 120.4,1.4 -0.1,-0.2 C 481.6,175.1 477.5,143.8 483.4,114 l 0.1,-0.4 c 0.1,-0.6 0.3,-1.7 0.6,-3.2 -4.4,-1.3 -8.8,-2.4 -13.2,-3.3 -3.8,-0.8 -9.1,-1.9 -16.1,-3.2 2,1.2 3.6,3 4.4,5.1 0,0 0.8,1.9 0.6,4.5 -0.2,2.6 -3.2,5.2 -3.2,5.2 -1.5,1.2 -3.3,1.9 -5.3,2.1 -0.5,0.1 -0.9,0.1 -1.4,0.1 -2.7,0 -5.3,-0.9 -7.5,-2.7 -2.1,-1.7 -3.4,-3.9 -3.7,-6.1 -0.3,-2.2 0.6,-4 1.4,-5.9 0.6,-1.3 3.4,-3.4 5.8,-3.9 -6.8,-1.2 -14,-2.3 -21.6,-3.3 -2.5,-0.3 -5,-0.6 -7.4,-0.9 v 0 l -0.2,0.2 c -4,3.7 -6.4,8.9 -6.6,14.3 l -1.5,43.5 c -0.1,2.4 0,4.7 0.3,6.9 v 0.4 c 0,0.1 0,0.1 0,0.2 1.2,10.1 3.4,20.1 6.5,29.7 2.2,6.8 5,15.5 7.4,23 2,6.4 5.2,12.2 9.5,17.4 8.9,-3.1 17.7,-6.5 26.4,-10.2 -1.6,-1.7 -2.5,-3.9 -2.5,-6.2 0,-3.9 2.6,-7.3 6.9,-8.9 5.1,-1.9 8.2,-0.1 9.5,1.2 1.6,1.5 2.6,3.7 2.7,6.2 7,-3.4 13.9,-7 20.7,-10.8 -0.2,-1.2 -0.6,-2 -0.9,-2.5 z M 461,172.6 c -1,1.9 -4.1,5.3 -7.4,6.4 -0.8,0.3 -1.8,0.3 -2.3,0.3 -3.2,0 -6.8,-1.4 -7.6,-1.9 -2.8,-2.2 -4.4,-5.7 -4.2,-9.2 0.2,-2.5 1.6,-6 4,-8.2 2,-1.8 6.3,-3.2 11,-2.5 4.7,0.7 6.7,4.4 7.3,6.8 0.6,2.4 0.6,5.6 -0.8,8.3 z"
   class="st5" />
	<path
   style="display:inline"
   id="path18"
   d="m 461.9,164.2 c -0.6,-2.3 -2.5,-6.1 -7.3,-6.8 -4.8,-0.7 -9,0.8 -11,2.5 -2.4,2.1 -3.8,5.7 -4,8.2 -0.2,3.5 1.3,7 4.2,9.2 0.7,0.6 4.3,1.9 7.6,1.9 0.5,0 1.4,-0.1 2.3,-0.3 3.3,-1.1 6.4,-4.4 7.4,-6.4 1.3,-2.6 1.4,-5.9 0.8,-8.3 z m -6.3,5.6 c -0.5,0.9 -2.3,2.7 -4,3.4 -1.2,0.1 -3.5,-0.5 -4.4,-0.9 -1.1,-1 -1.7,-2.4 -1.6,-3.8 v 0 c 0.1,-1 0.9,-3.1 2,-4.1 0.7,-0.6 3.5,-1.6 5.6,-1.2 0,0 0.1,0 0.1,0 1.3,0.5 2.4,1.5 2.9,2.7 0.3,1.3 0.1,2.6 -0.6,3.9 z M 41.7,195.2 c 0.1,0 0.2,0 0.3,0 l 59.8,-6.9 c 1.6,-0.2 2.8,-1.7 2.6,-3.3 -0.2,-1.6 -1.7,-2.8 -3.3,-2.6 l -59.8,6.9 c -1.6,0.2 -2.8,1.7 -2.6,3.3 0.2,1.5 1.5,2.6 3,2.6 z M 95.9,211 c -0.2,-1.6 -1.7,-2.8 -3.3,-2.6 l -59.8,6.9 c -1.6,0.2 -2.8,1.7 -2.6,3.3 0.2,1.5 1.5,2.7 3,2.7 0.1,0 0.2,0 0.3,0 l 59.8,-6.9 c 1.6,-0.3 2.8,-1.8 2.6,-3.4 z m 12.9,18.6 -59.8,6.9 c -1.6,0.2 -2.8,1.7 -2.6,3.3 0.2,1.5 1.5,2.7 3,2.7 0.1,0 0.2,0 0.3,0 l 59.8,-6.9 c 1.6,-0.2 2.8,-1.7 2.6,-3.3 -0.2,-1.7 -1.7,-2.9 -3.3,-2.7 z m 447.9,-87.3 c 0,0 -3.9,-3.1 -3.9,-3.1 l -0.1,-0.1 c 0,0 0,0 0,0 l -0.4,-0.3 c -23.3,-18.3 -51,-31.3 -80,-37.5 -4.8,-1 -11.8,-2.4 -21.6,-4.2 -7.8,-1.4 -16.3,-2.8 -25.4,-4 -45.2,-6.1 -90.5,-3.8 -134.8,7 l -15.3,3.7 -12,3.8 -9.7,-4.9 C 226.3,89.1 194.2,86.8 165.4,96.6 l -0.5,0.2 c -1.1,0.4 -3.3,1.1 -6.4,2.2 -1.1,0.4 -1.9,1.4 -2,2.5 -0.1,1.1 0.4,2.3 1.4,2.9 l 1.1,0.7 c 0.3,0.2 0.4,0.3 0.5,0.3 12.2,7.5 20.3,20.4 21.7,34.7 l -19.4,12.5 c -0.3,-0.3 -0.6,-0.6 -1,-0.9 -6.5,-6.4 -13.8,-13.6 -24.9,-12.5 h -0.5 l -0.4,0.2 c -22.9,9.8 -18.5,48.9 -16.1,69.9 0.2,1.9 0.4,3.7 0.6,5.2 0.9,9.4 4.1,26.9 15,38.2 4.6,4.8 12.3,8 19.1,8 0.4,0 0.7,0 1,0 4.7,-0.2 8.5,-2 11,-5.2 3.9,-5 7.2,-8.6 8.9,-10.4 0,0 0,0 0,0 1,0.5 2,1 3.1,1.3 4.3,2.1 9,3.9 14.1,5.2 3.1,0.8 6.4,1.5 9.8,2 2.2,11.1 -0.9,22.8 -8.3,31.4 -0.6,0.7 -2,2.3 -4.1,4.8 l -1.8,2.2 c -0.8,0.9 -0.9,2.1 -0.4,3.2 0.5,1.1 1.6,1.7 2.7,1.7 v 0 c 25.4,-0.2 45.9,-2.9 61.1,-7.9 5.9,-2 13.4,-5.7 22.4,-11.3 5.5,-3.4 10,-8.1 13.2,-13.8 40,-0.4 78.3,-5.2 113.8,-14.1 35.9,-9.1 69.8,-22.7 101,-40.5 11.4,-5.7 22.5,-13.4 33,-23 8.5,-7.7 16.8,-17 24.8,-27.6 3.8,-5.1 2.9,-12.5 -2.2,-16.4 z m -103.1,-31.5 0.3,0.7 c 0.2,0.6 0.1,1.1 -0.1,1.7 -1,1.2 -2.3,1.6 -3.1,1.7 -1.5,0.2 -3.1,-0.3 -4.3,-1.3 -0.6,-0.5 -1.9,-1.7 -1.5,-3.1 0.4,-1.5 1.5,-2.3 3.2,-2.4 1.9,-0.2 4.4,0.8 5.5,2.7 z m -287.4,-8.2 c 0.2,-0.1 0.4,-0.1 0.5,-0.2 l 0.5,-0.2 c 27.3,-9.2 57.7,-7.1 83.5,5.8 l 4.2,2.1 -5.5,1.7 -0.2,0.1 c -5.3,2.1 -15.8,6.1 -31.4,12.2 l -30.8,12 -0.4,0.2 c -1.9,-13.5 -9.3,-25.6 -20.4,-33.7 z m -5.3,149.1 c -1.7,2.2 -4.5,2.8 -6.5,2.9 -5.3,0.3 -11.8,-2.3 -15.5,-6.2 -7,-7.3 -11.9,-20 -13.4,-34.7 -0.2,-1.6 -0.4,-3.4 -0.6,-5.3 -2.2,-19.3 -6.2,-55.2 12.1,-63.5 8.1,-0.6 13.7,5 19.7,10.8 0.4,0.4 0.8,0.8 1.2,1.2 -3.5,7.8 -5.7,15.9 -6.5,24.1 -0.8,9 0,18.4 2.4,27.9 l 2.5,10.3 c -0.7,0.4 -1.5,0.8 -2.2,1.3 -3.3,1.9 -6.7,3.8 -10.1,6 -1,0.6 -1.5,1.8 -1.3,2.9 0.2,1.1 0.9,2.1 2,2.4 3.4,1.1 8.1,1.5 13.1,1.5 1.8,0 3.6,-0.1 5.4,-0.1 1.3,2 2.7,3.9 4,5.4 0.8,1 1.6,1.8 2.5,2.6 -1.8,2.1 -5,5.7 -8.8,10.5 z M 157,225.8 c 7,-3.9 14.1,-8 20.1,-14.7 h 0.2 c 18.9,0 45.4,-4.6 59.8,-7.2 0.1,0 0.2,0 0.3,-0.1 -2.5,2.2 -5.4,4.4 -7.8,5.7 -15.4,8.2 -34.9,13.6 -44.3,15.3 -8.2,1.4 -21.6,3 -31.1,2.5 1,-0.5 1.9,-1 2.8,-1.5 z m 112.9,46.7 c -8.6,5.3 -15.8,8.9 -21.2,10.7 -13.2,4.4 -30.9,6.9 -52.6,7.5 0.8,-0.9 1.3,-1.5 1.6,-1.9 8.2,-9.6 11.8,-22.2 9.9,-34.5 0.2,0 0.3,0 0.5,0.1 l 71.3,8.9 c -2.3,3.7 -5.6,6.9 -9.5,9.2 z m 15.1,-14.6 -76.1,-9.5 c -5.6,-0.5 -10.8,-1.4 -15.7,-2.7 -4.8,-1.3 -9.2,-2.9 -13.2,-4.9 l -0.3,-0.1 -0.3,-0.1 c -2.3,-0.6 -4.9,-2.5 -7.6,-5.7 -0.5,-0.6 -1.1,-1.3 -1.6,-2 8.8,-0.8 16,-2.1 16.2,-2.1 8.4,-1.5 28.9,-6.7 46.1,-15.9 5.8,-3.1 13.5,-10.3 15.8,-13.7 0.7,-0.9 0.7,-2.2 0.2,-3.2 -0.5,-1 -1.7,-1.6 -2.8,-1.5 -1.3,0.1 -4,0.6 -9.5,1.5 -14.7,2.6 -42,7.4 -60.3,7.1 -0.9,0 -1.8,0.4 -2.4,1.1 -3.4,4.2 -7.4,7.2 -11.7,10 l -2.1,-8.5 c -2.2,-8.9 -3,-17.6 -2.2,-25.9 0.7,-8 2.9,-15.9 6.5,-23.4 l 26,-16.8 30.2,-11.7 c 15.5,-6 25.9,-10.1 31.3,-12.2 l 25.4,-8 15.2,-3.7 c 26.6,-6.5 53.5,-9.8 80.6,-10.1 -3.1,4.5 -4.9,9.9 -5,15.4 -0.3,10.2 -0.9,35.3 -1.2,46.9 -0.1,2.9 0.1,5.8 0.5,8.7 0,0.1 0,0.3 0.1,0.5 0,0.1 0,0.1 0,0.2 0,0.3 0.1,0.6 0.1,0.7 v 0 c 1.6,11.2 4.2,22.3 7.8,33 l 8.3,24.6 c 2.4,7.1 5.9,13.6 10.5,19.5 -34.3,7.9 -70.7,12.2 -108.8,12.5 z m 114.9,-14.3 c -5,-5.8 -8.8,-12.5 -11.3,-19.8 l -8.3,-24.6 c -3.6,-10.7 -6.2,-21.8 -7.7,-33.1 v 0 c 0,0 0,-0.1 0,-0.1 -0.3,-2.6 -0.5,-5.2 -0.4,-7.8 0.3,-11.6 0.9,-36.7 1.2,-46.9 0.2,-5.9 2.6,-11.5 6.9,-15.6 9.8,0.1 19.6,0.6 29.4,1.5 -3.3,4.3 -5.2,9.6 -5.4,15.1 l -1.5,43.5 c -0.1,2.7 0,5.3 0.3,7.9 0,0.2 0,0.4 0.1,0.6 0,0.1 0,0.1 0,0.2 0,0.1 0,0.2 0,0.3 v 0.2 0 c 1.3,10.2 3.5,20.3 6.7,30 2.2,6.8 5,15.5 7.4,23 2,6.4 5.1,12.3 9.2,17.6 -8.7,3 -17.6,5.6 -26.6,8 z m 69.6,-24.8 c -1.4,0.6 -2.8,1.3 -4.2,1.9 -1.7,-0.8 -2.7,-2.1 -2.7,-3.4 0,-1.3 1.1,-2.5 3,-3.2 0.9,-0.3 2.6,-0.8 3.4,0 0.6,0.6 1,2.5 0.5,4.7 z m 6.2,-2.9 c -0.2,-2.5 -1.1,-4.7 -2.7,-6.2 -1.4,-1.3 -4.4,-3.1 -9.5,-1.2 -4.3,1.6 -6.9,4.9 -6.9,8.9 0,2.3 0.9,4.4 2.5,6.2 -8.6,3.7 -17.4,7.1 -26.4,10.2 -4.2,-5.2 -7.4,-11 -9.5,-17.4 -2.4,-7.6 -5.2,-16.2 -7.4,-23 -3.1,-9.7 -5.3,-19.7 -6.5,-29.7 0,-0.1 0,-0.1 0,-0.2 v -0.4 c -0.3,-2.3 -0.4,-4.6 -0.3,-6.9 l 1.5,-43.5 c 0.2,-5.4 2.6,-10.7 6.6,-14.3 l 0.2,-0.2 v 0 c 2.5,0.3 5,0.6 7.4,0.9 7.6,1 14.9,2.2 21.6,3.3 -2.5,0.5 -5.2,2.6 -5.8,3.9 -0.9,1.9 -1.7,3.7 -1.4,5.9 0.3,2.2 1.6,4.4 3.7,6.1 2.1,1.7 4.8,2.7 7.5,2.7 0.5,0 0.9,0 1.4,-0.1 1.9,-0.2 3.7,-1 5.3,-2.1 0,0 3,-2.6 3.2,-5.2 0.2,-2.6 -0.6,-4.5 -0.6,-4.5 -0.9,-2.1 -2.5,-3.8 -4.4,-5.1 7,1.3 12.3,2.4 16.1,3.2 4.4,0.9 8.8,2.1 13.2,3.3 -0.3,1.5 -0.5,2.6 -0.6,3.2 l -0.1,0.4 c -5.9,29.7 -1.8,61.1 11.6,88.3 l 0.1,0.2 c 0.2,0.5 0.7,1.3 1.2,2.5 -7.1,3.7 -14,7.3 -21,10.8 z M 554.1,155 c -7.8,10.3 -15.9,19.3 -24.1,26.8 -9.1,8.3 -18.6,15.1 -28.3,20.3 -0.5,-1.1 -0.9,-1.9 -1.2,-2.3 l -0.1,-0.2 c -12.8,-26 -16.7,-56 -11.1,-84.4 l 0.1,-0.4 c 0.1,-0.5 0.3,-1.4 0.5,-2.6 21.2,6.9 41.2,17.5 58.6,31.2 0,0 0.1,0.1 0.1,0.1 v 0 c 0,0 2.2,1.7 4.4,3.5 2.5,1.9 3,5.5 1.1,8 z"
   class="st1" />
	<g
   style="display:inline"
   id="g28"
   class="st1">
		<path
   id="path20"
   d="m 408.8,100.9 c -0.9,-0.9 -2.1,-1.5 -3.2,-1.5 -0.2,0 -0.3,0 -0.5,0 -3.1,0.4 -4.7,0.6 -7.9,1.1 -1.7,0.3 -2.9,1.7 -3.1,3.6 -0.1,1 -0.1,2.1 -0.2,3.1 -0.3,-1 -0.6,-2 -0.9,-3.1 -0.7,-2.1 -2.5,-3.6 -4.5,-3.5 -0.1,0 -0.1,0 -0.2,0 -1,0.1 -1.9,0.2 -2.8,0.2 -0.8,0.1 -1.7,0.1 -2.5,0.2 -0.8,0.1 -1.5,0.1 -2.1,0.1 -0.5,0 -0.8,0 -1.4,0.1 -0.2,0 -0.5,0 -1.1,0 -0.1,0 -0.2,0 -0.3,0 -1.7,0.1 -3,1.3 -3.4,3.1 -0.2,-0.3 -0.5,-0.6 -0.7,-0.9 -0.9,-0.9 -2,-1.3 -3,-1.3 -0.2,0 -0.4,0 -0.6,0.1 -3.9,0.9 -5.9,1.4 -9.8,2.5 -1.7,0.5 -2.9,2.2 -2.9,4.3 -0.1,4.7 -0.1,9.3 -0.2,13.9 0,-0.6 -0.1,-1.1 -0.1,-1.7 -0.2,-2.9 -0.4,-5.6 -0.5,-7.9 -0.1,-2.4 -0.2,-4.4 -0.3,-6.1 -0.1,-1.5 -0.7,-3 -1.8,-4 -0.9,-0.8 -1.9,-1.2 -2.9,-1.1 -0.2,0 -0.5,0.1 -0.7,0.1 -2.7,0.8 -5.6,1.6 -8.5,2.3 -3,0.7 -6,1.4 -8.9,2 -1,0.2 -1.9,0.9 -2.5,1.9 -0.2,-0.5 -0.6,-1 -0.9,-1.4 -0.9,-0.9 -2,-1.4 -3.2,-1.2 -0.2,0 -0.3,0.1 -0.5,0.1 -1.6,0.5 -3.3,1 -5,1.5 -1.7,0.5 -3.6,1 -5.6,1.5 -2,0.5 -4.1,1 -6.2,1.5 -1.1,0.2 -2.2,0.5 -3.3,0.7 -1.1,0.2 -2.2,0.4 -3.3,0.6 -0.1,0 -0.2,0 -0.3,0.1 -1,0.3 -1.9,1 -2.6,2 -0.3,0.5 -0.6,1.1 -0.8,1.7 -1,-0.8 -2.2,-1.5 -3.5,-1.8 -2,-0.6 -4.3,-0.5 -6.8,0.4 -1.3,0.4 -2.8,0.8 -4.2,1.5 -1.3,0.6 -2.6,1.2 -3.9,1.8 -1.3,0.7 -2.6,1.4 -3.9,2.2 -1.4,0.9 -2.4,2.7 -2.4,4.5 -0.1,2.3 -0.2,4.9 -0.3,7.6 -0.1,2.8 -0.3,5.6 -0.4,8.6 -0.2,3.1 -0.3,6 -0.4,8.8 0,0.6 -0.1,1.2 -0.1,1.8 -0.1,-1.7 -0.3,-3.5 -0.4,-5.3 -0.2,-3 -0.4,-5.8 -0.6,-8.6 -0.2,-2.8 -0.3,-5.4 -0.4,-7.7 -0.1,-2.3 -0.2,-4.4 -0.2,-6 0,-1.5 -0.7,-2.9 -1.7,-3.6 -0.8,-0.6 -1.9,-0.8 -2.9,-0.5 -0.2,0.1 -0.5,0.2 -0.7,0.3 -2.8,1.4 -5.6,2.7 -8.5,3.9 -3,1.3 -6,2.5 -8.8,3.6 -1.7,0.7 -3,2.4 -3.2,4.4 -0.2,1.5 -0.4,3.2 -0.6,4.9 -0.1,-0.2 -0.2,-0.4 -0.3,-0.6 -0.8,-1.5 -1.8,-2.8 -3,-3.7 -1.2,-1 -2.6,-1.6 -4.2,-1.8 -1.6,-0.3 -3.2,-0.1 -4.8,0.4 -4.2,1.3 -7.8,3.7 -10.9,7 -2.8,3.1 -5.2,6.6 -6.9,10.6 -1.7,3.8 -2.9,7.8 -3.5,12.1 -0.6,4.2 -0.6,8.4 0,12.6 0.4,2.6 1,4.9 1.9,6.8 0.9,2 2,3.7 3.2,5.2 1.4,1.6 3,2.7 4.7,3.4 1.8,0.7 3.7,1 5.7,0.8 1.8,-0.2 3.6,-0.8 5.4,-1.8 1.7,-1 3.3,-2.3 4.9,-4.1 0.4,-0.5 0.8,-0.9 1.2,-1.5 -0.2,1.4 0.3,2.7 1.3,3.6 0.9,0.8 2.1,1.1 3.3,1 0.2,0 0.3,-0.1 0.5,-0.1 1.3,-0.4 2.6,-0.8 4,-1.2 1.4,-0.4 2.1,-0.6 3.5,-1 1.3,-0.4 2.4,-0.7 3.4,-1 1,-0.3 1.9,-1 2.4,-1.9 0.3,0.7 0.8,1.4 1.4,1.9 0.9,0.6 1.9,0.9 3,0.7 0.2,0 0.4,-0.1 0.7,-0.2 1.4,-0.5 2.1,-0.7 3.4,-1.2 1.2,-0.4 2.3,-0.8 3.3,-1.2 1.3,-0.4 2.6,-0.8 3.9,-1.2 0.2,0.2 0.4,0.5 0.6,0.7 0.9,0.7 2,1 3.1,0.9 0.3,0 0.5,-0.1 0.8,-0.2 4.3,-1.6 6.6,-2.1 10.8,-3.9 1.6,-0.7 2.7,-2.4 2.7,-4.2 0,-1.9 0,-3.8 0.1,-5.7 0,0 0,-0.1 0,-0.1 0,-1.6 0,-3.4 0.1,-5.3 0,-0.6 0,-1.3 0.1,-1.9 1.8,-0.7 3.5,-1.8 5,-3.2 2.2,-1.9 4.1,-4.3 5.6,-7.2 1.5,-2.8 2.6,-5.9 3.3,-9.2 0.6,-2.7 0.8,-5.4 0.7,-8.1 0.1,0 0.2,0 0.3,0 0,0.3 0,0.7 0,1 0,2.3 -0.1,4.7 -0.2,7.1 -0.1,2.5 -0.2,5 -0.3,7.5 -0.1,2.5 -0.2,4.9 -0.3,7.2 -0.3,5.5 -0.5,11 -0.9,16.4 -0.1,1.5 0.5,3 1.6,3.9 0.9,0.8 2,1.2 3.2,1 0.2,0 0.4,-0.1 0.6,-0.1 4.6,-1.5 7,-2.2 11.6,-3.7 0.8,-0.3 1.6,-0.8 2.1,-1.6 0.2,0.4 0.5,0.8 0.8,1.1 0.9,1 2.2,1.4 3.4,1.2 0.2,0 0.4,-0.1 0.5,-0.1 1.3,-0.4 2.7,-0.8 4.1,-1.2 1.4,-0.4 2.2,-0.6 3.6,-1 1.3,-0.4 2.5,-0.7 3.5,-1 1,-0.3 1.9,-1.1 2.4,-2.1 0.3,0.8 0.8,1.6 1.4,2.1 0.9,0.7 2,1.1 3,0.9 0.2,0 0.4,-0.1 0.7,-0.2 1.4,-0.5 2.1,-0.7 3.5,-1.2 1.2,-0.4 2.4,-0.8 3.4,-1.2 1.1,-0.3 2.2,-0.7 3.3,-1.1 0.3,0.3 0.6,0.6 0.9,0.8 0.8,0.5 1.8,0.7 2.7,0.6 0.4,-0.1 0.7,-0.2 1,-0.4 0.1,0 0.4,-0.2 1,-0.4 0.9,-0.3 2,-0.7 3.2,-1.1 1.1,-0.3 2.2,-0.7 3.3,-0.9 1.4,-0.4 1.8,-0.4 1.9,-0.4 0.9,-0.1 1.8,-0.7 2.4,-1.4 0.3,0.5 0.6,1 1.1,1.4 0.9,0.7 1.9,1.1 3,0.9 0.3,0 0.6,-0.1 0.9,-0.3 3.7,-1.5 5.5,-2.3 9.2,-3.8 0.9,-0.4 1.6,-1 2.1,-1.9 0.4,1.1 1.2,2.1 2.2,2.6 0.7,0.4 1.5,0.5 2.3,0.4 0.5,-0.1 1,-0.2 1.4,-0.5 0.2,-0.1 0.7,-0.4 1.9,-0.9 1.3,-0.5 2,-0.8 3.4,-1.3 1.1,-0.4 2.1,-0.8 3,-1.1 0.6,-0.2 0.9,-0.3 1,-0.4 1.9,-0.4 3.2,-2.2 3.2,-4.3 0,-1.5 0,-3.3 0,-5.6 0,-2.2 0.1,-4.7 0.2,-7.3 0.1,-2.5 0.2,-5.2 0.3,-8.3 0.1,-2.8 0.3,-5.6 0.4,-8.5 0,0 0,0 0,-0.1 0.3,-6.4 0.7,-13.3 1.3,-20.3 -0.3,-1.5 -0.8,-3 -1.9,-4 z m -175,61.6 c -0.5,-0.1 -1,-0.1 -1.5,0 -0.6,0.1 -1.2,0.4 -1.8,0.8 -0.2,0.1 -0.3,0.3 -0.5,0.5 0.1,-0.4 0.1,-0.8 0.2,-1.3 0.3,-1.5 0.6,-3.1 1,-4.7 0.4,-1.6 0.9,-3 1.4,-4.3 0.2,-0.5 0.4,-0.9 0.6,-1.4 0.6,0.2 1.3,0.2 2,0.1 0.3,-0.1 0.7,-0.2 1,-0.4 3,-1.6 4.5,-2.4 7.5,-4.1 -0.4,2.5 -0.7,5 -1.1,7.4 -0.1,0.6 -0.1,0.9 -0.2,1.5 -0.3,2.2 -0.6,4.4 -0.9,6.4 0,0.3 -0.1,0.6 -0.1,0.8 -3,-0.4 -4.5,-0.7 -7.6,-1.3 z m 90.6,-5.7 c 0,-1.6 0,-3.3 0.1,-4.9 0,-2.2 0.1,-4.6 0.1,-6.9 0,-2.3 0.1,-4.7 0.1,-7.1 0.1,-2.3 0.1,-4.6 0.2,-6.8 0,-0.9 0.1,-1.7 0.1,-2.6 1.1,-0.3 2.2,-0.8 3.2,-1.3 0,0.3 -0.1,0.5 -0.1,0.8 -0.4,3.2 -0.8,6.4 -1.3,9.6 -0.1,0.7 -0.1,1.1 -0.2,1.8 -0.3,2.5 -0.6,5 -1,7.3 -0.3,3.4 -0.8,6.8 -1.2,10.1 z" />
		<path
   id="path22"
   d="m 441.4,165.6 c -0.9,-0.9 -2.1,-1.3 -3.3,-1.2 -0.2,0 -0.5,0.1 -0.7,0.1 -0.6,0.2 -1.3,0.4 -2.2,0.6 -1,0.2 -2.1,0.5 -3.1,0.8 -1,0.3 -2,0.6 -3,0.8 -1.1,0.3 -2,0.5 -2.9,0.8 -1.5,0.5 -2.7,1.9 -2.9,3.6 -0.3,3.1 -0.7,6.1 -1,9.2 -0.1,-0.4 -0.2,-0.8 -0.4,-1.3 -0.7,-2.1 -1.6,-4 -2.7,-5.6 -1.3,-1.9 -3,-3.3 -5,-4.3 -2.1,-1.1 -4.6,-1.4 -7.3,-1.1 -2.9,0.4 -5.7,1.5 -8.2,3.4 -2.3,1.8 -4.4,4 -6.2,6.7 -1.6,2.3 -3,5 -4.2,7.8 0,0 0,-0.1 0,-0.1 -0.3,-2.8 -1.2,-5.1 -2.5,-6.9 -1.2,-1.7 -2.6,-3 -4.2,-3.9 -1.6,-0.9 -3.3,-1.5 -5.1,-1.6 -1.5,-0.1 -3,-0.1 -4.3,0.1 -2.8,0.4 -5.4,1.1 -8,2 -2.4,0.9 -4.8,1.9 -7.1,2.9 -1.6,0.7 -2.7,2.5 -2.7,4.5 0,0.2 0,0.4 0,0.6 -0.4,-0.6 -0.9,-1.1 -1.4,-1.6 -1.3,-1.3 -2.9,-2.1 -4.8,-2.6 -1.7,-0.4 -3.5,-0.4 -5.7,-0.1 -3,0.4 -6.1,1.1 -9.1,2 -3.1,0.9 -6,2 -8.6,3.3 -0.1,0 -0.2,0.1 -0.2,0.1 -0.2,-0.3 -0.4,-0.6 -0.7,-0.8 -0.9,-0.9 -2.1,-1.3 -3.3,-1.2 -0.1,0 -0.2,0 -0.3,0 -4,0.8 -6,1.2 -9.9,2 -0.5,0.1 -1,0.3 -1.4,0.6 -0.9,-0.7 -2,-1.1 -3,-0.9 -0.1,0 -0.3,0 -0.4,0.1 -1.3,0.3 -2.6,0.6 -3.9,0.9 -1.1,0.3 -2.3,0.5 -3.5,0.8 -1.2,0.3 -2.3,0.6 -3.1,0.8 -0.3,0.1 -0.6,0.2 -0.9,0.4 0,0 -0.1,-0.1 -0.1,-0.1 -0.9,-0.8 -2,-1.1 -3.1,-1 -0.2,0 -0.3,0.1 -0.5,0.1 -1.6,0.5 -3.2,0.9 -4.9,1.2 -1.7,0.4 -3.5,0.7 -5.5,1.1 -1.9,0.4 -4,0.7 -6.1,1 -1.1,0.2 -2.2,0.3 -3.2,0.4 -1.1,0.1 -2.2,0.2 -3.2,0.3 -0.1,0 -0.2,0 -0.3,0 -1,0.2 -1.9,0.7 -2.5,1.5 -0.7,0.9 -1.1,2.1 -0.9,3.2 0.1,1.2 0.2,2.3 0.3,3.4 0.1,1 0.2,2 0.3,3.1 0.1,0.9 0.2,1.6 0.2,2.3 0.1,2 1.6,3.7 3.4,4 0.9,0.2 1.8,0.2 2.7,0.2 0,0.3 0,0.6 0,0.9 0,2 -0.1,4.2 -0.1,6.4 -0.1,2.3 -0.2,4.6 -0.3,7 -0.1,2.3 -0.2,4.7 -0.4,6.9 -0.3,5.3 -0.7,10.8 -1.1,16.4 -0.1,1.6 0.4,3.1 1.5,4.2 0.9,0.9 2,1.3 3.1,1.2 0.2,0 0.4,-0.1 0.6,-0.1 4.6,-1.4 6.9,-2.2 11.5,-3.6 1.7,-0.5 2.9,-2.3 3,-4.4 0.1,-5.4 0.1,-10.5 0.3,-15.4 0.1,-2.1 0.1,-4.3 0.1,-6.5 0,-2.1 0.1,-4.3 0.1,-6.5 0.1,-2.1 0.1,-4.2 0.2,-6.1 0,-0.8 0.1,-1.6 0.1,-2.3 0.7,-0.2 1.4,-0.3 2.1,-0.6 0,1 -0.1,2.1 -0.1,3.2 -0.1,3.1 -0.2,6.3 -0.3,9.3 -0.1,3.1 -0.1,6.1 -0.2,8.9 -0.1,2.9 -0.1,5.3 0,7.4 0,0.4 0,0.9 0,1.3 0,0.2 0,0.4 0.1,0.6 0.2,2.4 0.9,4.5 1.9,6.4 1,1.7 2.2,3.2 3.5,4.4 1.3,1.1 2.8,2 4.4,2.5 1.5,0.5 3,0.7 4.4,0.7 2.1,-0.1 4.2,-0.6 6.3,-1.4 2.1,-0.9 4,-2.3 5.8,-4.1 1.5,-1.6 2.7,-3.4 3.8,-5.6 -0.1,1 -0.1,2 -0.2,3.1 -0.1,1.7 0.5,3.4 1.7,4.5 0.9,0.8 2,1.2 3,1.1 0.3,0 0.7,-0.1 1,-0.2 4.2,-1.7 6.3,-2.6 10.4,-4.4 1.5,-0.7 2.5,-2.3 2.6,-4.2 0,-0.4 0,-0.9 0.1,-1.3 0.5,1.2 0.9,2.4 1.4,3.6 0.5,1.2 1.4,2.1 2.4,2.6 0.6,0.3 1.3,0.3 1.9,0.2 0.5,-0.1 0.9,-0.2 1.3,-0.5 2.4,-1.5 3.6,-2.2 6,-3.7 0.2,0.6 0.4,1.1 0.7,1.5 0.7,1 1.8,1.6 3,1.6 1.7,0 3.5,-0.2 5.3,-0.7 2,-0.5 4,-1.3 6.1,-2.2 2,-1 4.1,-2.1 6,-3.4 1.9,-1.3 3.8,-2.8 5.5,-4.4 1.8,-1.7 3.4,-3.6 4.7,-5.5 0.5,-0.8 1,-1.6 1.4,-2.5 0.1,0.1 0.1,0.3 0.2,0.4 1,2.3 2.2,4.1 3.6,5.5 1.5,1.4 3.2,2.3 5,2.8 1.8,0.5 3.8,0.4 5.8,0 2.2,-0.5 4.5,-1.6 6.7,-3.2 2.1,-1.5 4.1,-3.4 6,-5.7 1,-1.2 1.9,-2.5 2.8,-3.9 0.2,1 0.5,2 1,2.9 0.6,1.1 1.3,2 2.1,2.8 1,0.9 2.2,1.5 3.6,1.8 1.4,0.3 2.8,0.2 4.3,-0.3 1.8,-0.5 3.4,-1.3 4.7,-2.2 1.4,-1 2.6,-2.1 3.6,-3.4 0.9,-1.3 1.6,-2.7 2,-4.2 0.4,-1.5 0.5,-2.9 0.3,-4.3 -0.3,-2.4 -1.6,-4.4 -3.6,-5.8 0.8,-0.7 1.4,-1.6 1.5,-2.7 1.1,-5.9 2.2,-11.9 3.3,-17.8 1.1,-5.8 2.4,-11.6 3.9,-17.2 0.7,-1.6 0.2,-3.1 -0.8,-4.2 z m -40.1,42.3 c 0,-1.3 0.1,-2.8 0.4,-4.2 0.3,-1.5 0.6,-3.1 1.1,-4.6 0.4,-1.4 0.9,-2.6 1.5,-3.7 0.5,-1 1.1,-1.7 1.8,-2.4 0.2,-0.2 0.4,-0.3 0.7,-0.5 0.1,0.4 0.2,0.8 0.2,1.1 0.2,1.6 0.2,3.5 0,5.6 -0.2,2.1 -0.6,4.2 -1.2,6.2 -0.6,1.8 -1.3,3.3 -2.3,4.6 -0.6,0.7 -1.1,1.2 -1.9,1.4 -0.1,-0.1 -0.1,-0.2 -0.1,-0.2 -0.2,-0.8 -0.2,-1.9 -0.2,-3.3 z m -47.5,14.6 c -0.9,-1.7 -1.8,-3.4 -2.7,-5.2 -0.5,-1 -1,-1.9 -1.5,-2.8 0.6,-0.7 1.2,-1.4 1.7,-2.2 1.2,-1.7 2.2,-3.4 3,-5.3 0,1.2 0,2.4 -0.1,3.6 0,3.9 -0.1,7.9 -0.4,11.9 z" />
		<path
   style="fill:#ef3384"
   id="path24"
   d="m 232.3,168.9 c -0.3,0.8 -0.7,1.5 -1.1,2.2 -0.4,0.7 -0.9,1.2 -1.5,1.7 -0.5,0.5 -1.1,0.7 -1.5,0.8 -0.6,0.1 -1.1,-0.1 -1.6,-0.6 -0.4,-0.5 -0.8,-1.4 -1,-2.8 -0.1,-0.9 -0.1,-2.1 0,-3.5 0.1,-1.5 0.3,-3 0.6,-4.7 0.3,-1.7 0.7,-3.3 1.1,-5 0.5,-1.7 1,-3.3 1.5,-4.7 0.5,-1.4 1.1,-2.6 1.8,-3.6 0.6,-1 1.3,-1.6 2,-1.7 0.7,-0.2 1.4,0.2 2,1.2 3.2,-1.8 4.9,-2.7 8.1,-4.5 0,-0.3 0,-0.6 -0.1,-0.9 0,-0.3 -0.1,-0.5 -0.1,-0.9 -0.2,-1.5 -0.6,-2.7 -1.1,-3.8 -0.6,-1.1 -1.2,-1.9 -2,-2.5 -0.8,-0.6 -1.7,-1 -2.7,-1.2 -1,-0.2 -2,-0.1 -3.1,0.2 -3.3,1 -6.3,2.9 -8.7,5.5 -2.5,2.7 -4.5,5.7 -6,9.2 -1.5,3.5 -2.6,7.2 -3.1,11.1 -0.5,3.9 -0.5,7.8 0,11.7 0.3,2.3 0.9,4.2 1.6,5.8 0.7,1.6 1.6,3 2.5,4.1 1,1.1 2,1.8 3.2,2.3 1.2,0.5 2.4,0.6 3.7,0.4 1.3,-0.2 2.6,-0.6 4,-1.4 1.3,-0.8 2.6,-1.8 3.8,-3.2 1.2,-1.4 2.3,-3.1 3.4,-5.1 1,-2 1.9,-4.3 2.6,-6.9 -3.1,-0.6 -4.7,-0.9 -7.8,-1.6 0,0.8 -0.2,1.6 -0.5,2.4 z m 17.8,-37.8 c -0.3,2.3 -0.6,4.8 -1,7.5 -0.4,2.7 -0.8,5.5 -1.2,8.3 -0.4,2.9 -0.8,5.7 -1.2,8.5 -0.4,2.8 -0.8,5.5 -1.1,8 -0.9,6.1 -1.8,12.1 -2.7,18.2 1.3,-0.4 2.6,-0.8 4,-1.2 1.1,-0.3 2.3,-0.7 3.6,-1.1 1.3,-0.4 2.4,-0.7 3.3,-1 0.5,-4 0.8,-6.1 1.3,-10.2 2.3,-0.4 3.4,-0.7 5.6,-1.1 0,0.9 0.1,2 0.2,3.3 0.1,1.3 0.1,2.6 0.2,3.9 0,1.5 0.1,3 0.1,4.5 1,-0.4 2.2,-0.8 3.4,-1.2 1.3,-0.5 2.4,-0.9 3.5,-1.2 1.3,-0.4 2.5,-0.8 3.8,-1.2 -0.7,-7.2 -1.4,-14 -2,-20.5 -0.2,-2.8 -0.5,-5.7 -0.7,-8.6 -0.2,-2.9 -0.4,-5.8 -0.6,-8.5 -0.2,-2.8 -0.3,-5.3 -0.5,-7.7 -0.1,-2.4 -0.2,-4.4 -0.2,-6.1 -2.8,1.4 -5.8,2.7 -8.8,3.9 -3.1,1.3 -6.1,2.4 -9,3.5 z m 9.4,11.2 c 0.1,2.8 0.2,5.5 0.3,7.9 0,1 0.1,2 0.1,3 0,1 0.1,2 0.1,2.9 0,0.9 0.1,1.6 0.1,2.3 0,0.7 0.1,1.2 0.1,1.4 -0.2,0.1 -0.5,0.2 -0.9,0.3 -0.4,0.1 -0.9,0.2 -1.4,0.4 -0.5,0.1 -1,0.2 -1.4,0.4 -0.5,0.1 -0.8,0.2 -0.9,0.2 0.7,-7.2 1,-10.8 1.8,-18.3 0.3,-2.6 0.4,-3.9 0.7,-6.5 0.4,-0.1 0.6,-0.2 1,-0.3 0.2,2.6 0.3,3.8 0.4,6.3 z m 38.7,-21.5 c -1,-1.1 -2.1,-1.9 -3.5,-2.3 -1.4,-0.4 -3.1,-0.3 -5,0.3 -1.1,0.4 -2.3,0.8 -3.5,1.3 -1.2,0.5 -2.4,1.1 -3.6,1.6 -1.2,0.6 -2.4,1.3 -3.6,2 -0.1,2.4 -0.2,5 -0.3,7.8 -0.1,2.8 -0.3,5.7 -0.4,8.6 -0.1,2.9 -0.3,5.9 -0.5,8.9 -0.2,3 -0.3,5.8 -0.5,8.4 -0.4,6.3 -0.8,12.6 -1.2,19.1 4.3,-1.6 6.5,-2.4 10.8,-3.9 0,-1.9 0.1,-3.8 0.1,-5.7 0,-1.6 0,-3.4 0.1,-5.4 0.1,-1.9 0.1,-3.8 0.3,-5.4 0.3,0 0.4,-0.1 0.7,-0.1 2,-0.5 4,-1.6 5.7,-3.2 1.8,-1.6 3.3,-3.6 4.5,-5.9 1.3,-2.3 2.2,-4.9 2.8,-7.8 0.6,-2.8 0.7,-5.7 0.4,-8.6 -0.2,-2 -0.6,-3.9 -1.1,-5.5 -0.5,-1.7 -1.2,-3.1 -2.2,-4.2 z m -5.6,17.8 c -0.2,1.6 -0.6,3.1 -1.1,4.5 -0.5,1.3 -1.1,2.4 -1.8,3.3 -0.7,0.9 -1.3,1.6 -2,1.9 0.2,-3.4 0.3,-6.6 0.4,-9.6 0.1,-3 0.3,-6.3 0.4,-9.8 0.9,-0.3 1.7,0 2.5,0.7 0.8,0.8 1.3,2.1 1.5,3.9 0.3,1.7 0.3,3.4 0.1,5.1 z m 34.3,-16 c 0.1,-0.9 0.1,-2 0.2,-3.4 0.1,-1.3 0.1,-2.6 0.2,-3.9 0.1,-1.8 0.2,-2.7 0.3,-4.5 -1.7,0.5 -3.4,1 -5.2,1.5 -1.8,0.5 -3.7,1 -5.8,1.5 -2.1,0.5 -4.2,1 -6.5,1.5 -1.1,0.2 -2.3,0.5 -3.4,0.7 -1.1,0.2 -2.3,0.4 -3.4,0.6 0.1,1.4 0.2,2.7 0.3,3.9 0.1,1.1 0.2,2.2 0.3,3.3 0.1,1.1 0.2,2.1 0.2,2.9 1,0.1 2.1,0.1 3.1,-0.2 1,-0.3 2,-0.4 3.1,-0.5 0,2 0,4.2 -0.1,6.5 -0.1,2.3 -0.1,4.8 -0.2,7.3 -0.1,2.5 -0.2,5 -0.3,7.6 -0.1,2.5 -0.2,5 -0.3,7.3 -0.3,5.5 -0.5,11 -0.9,16.6 4.6,-1.5 7,-2.3 11.6,-3.8 -0.1,-5.4 0,-10.7 0.1,-15.8 0,-2.2 0.1,-4.5 0.1,-6.9 0,-2.4 0.1,-4.8 0.1,-7.1 0.1,-2.4 0.1,-4.7 0.3,-6.9 0.1,-2.2 0.2,-4.3 0.3,-6.1 0.9,-0.4 1.9,-0.7 2.9,-1 1,-0.3 2,-0.6 3,-1.1 z m 7.6,-11.1 c -0.3,2.5 -0.6,5.2 -1,8.2 -0.4,3 -0.8,6 -1.2,9.2 -0.4,3.2 -0.8,6.4 -1.3,9.5 -0.4,3.2 -0.8,6.2 -1.2,9.1 -0.9,6.9 -1.9,13.8 -2.8,20.7 1.3,-0.4 2.7,-0.8 4.1,-1.2 1.1,-0.3 2.3,-0.7 3.7,-1 1.3,-0.4 2.4,-0.7 3.4,-1 0.5,-4.5 0.8,-6.8 1.3,-11.4 2.3,-0.3 3.5,-0.5 5.8,-0.8 0,1 0.1,2.3 0.2,3.7 0.1,1.4 0.1,2.9 0.2,4.3 0,1.6 0.1,3.3 0.1,5 1,-0.4 2.2,-0.8 3.5,-1.2 1.3,-0.5 2.5,-0.9 3.5,-1.2 1.3,-0.4 2.6,-0.8 3.9,-1.2 -0.7,-7.9 -1.4,-15.4 -2,-22.4 -0.2,-3 -0.5,-6.1 -0.7,-9.3 -0.2,-3.2 -0.5,-6.2 -0.7,-9.1 -0.2,-2.9 -0.4,-5.6 -0.5,-8.1 -0.1,-2.5 -0.2,-4.6 -0.3,-6.3 -2.9,0.9 -5.8,1.7 -8.9,2.4 -3.1,0.7 -6.1,1.4 -9.1,2.1 z m 9.6,13.9 c 0.1,3.1 0.2,6 0.3,8.7 0,1.1 0.1,2.2 0.1,3.4 0,1.1 0.1,2.2 0.1,3.2 0,1 0.1,1.8 0.1,2.6 0,0.8 0.1,1.3 0.1,1.6 -0.2,0.1 -0.5,0.2 -0.9,0.2 -0.4,0.1 -0.9,0.2 -1.4,0.3 -0.5,0.1 -1,0.2 -1.4,0.3 -0.5,0.1 -0.8,0.2 -1,0.2 0.7,-8 1.1,-12 1.8,-20.1 0.3,-2.8 0.4,-4.2 0.7,-7 0.4,-0.1 0.6,-0.1 1,-0.2 0.3,2.7 0.4,4 0.5,6.8 z m 17.7,-16 c -0.1,7 -0.2,13.8 -0.3,20.4 -0.1,2.8 -0.1,5.8 -0.2,8.8 -0.1,3 -0.2,6.1 -0.3,9 -0.1,3 -0.3,5.8 -0.4,8.5 -0.1,2.7 -0.3,5.2 -0.5,7.4 0.1,-0.1 0.6,-0.3 1.6,-0.6 1,-0.3 2,-0.7 3.2,-1.1 1.2,-0.4 2.3,-0.7 3.4,-1 1.1,-0.3 1.9,-0.5 2.3,-0.5 0,-2.2 0.1,-4.7 0.1,-7.5 0,-2.8 0.1,-5.6 0.1,-8.6 0.1,-2.9 0.1,-5.9 0.2,-8.9 0.1,-3 0.1,-5.9 0.2,-8.7 0.1,-6.5 0.3,-13.2 0.5,-20 -4.1,1.2 -6,1.7 -9.9,2.8 z m 36.5,-4.5 c -0.2,3.3 -0.5,6.5 -0.7,9.7 -0.1,1.4 -0.2,2.8 -0.2,4.2 -0.1,1.4 -0.1,2.8 -0.2,4.3 -0.1,1.4 -0.2,2.8 -0.2,4.1 -0.1,1.3 -0.1,2.4 -0.2,3.4 -0.7,-2 -1.4,-4.4 -2.3,-7.3 -0.9,-2.9 -1.8,-5.7 -2.6,-8.4 -0.9,-3.1 -1.8,-6.4 -2.9,-9.7 -1,0.1 -1.9,0.2 -2.8,0.3 -0.9,0.1 -1.7,0.2 -2.6,0.2 -0.9,0.1 -1.6,0.1 -2.2,0.1 -0.5,0 -0.8,0 -1.4,0.1 -0.4,0 -0.9,0 -1.4,0 0.1,2.2 0.1,4.7 0.1,7.5 0,2.8 0,5.7 -0.1,8.7 -0.1,3 -0.2,6.1 -0.3,9.2 -0.1,3.1 -0.2,6.2 -0.3,9.1 -0.3,6.7 -0.7,13.9 -1.2,21.2 3.7,-1.5 5.5,-2.3 9.2,-3.8 0.2,-3.7 0.4,-7.2 0.5,-10.5 0.1,-1.4 0.2,-2.9 0.2,-4.4 0,-1.5 0.1,-3 0.1,-4.4 0,-1.4 0.1,-2.7 0.2,-3.9 0.1,-1.2 0.1,-2.3 0.1,-3.3 0.3,0.9 0.6,2 0.9,3.2 0.3,1.3 0.7,2.6 1,4 0.4,1.4 0.7,3 1.1,4.5 0.4,1.6 0.7,3.1 1,4.6 0.7,3.5 1.5,7.1 2.3,11 0.5,-0.3 1.4,-0.7 2.5,-1.1 1.1,-0.4 2.2,-0.9 3.4,-1.3 1.1,-0.4 2.1,-0.8 3,-1.1 0.9,-0.3 1.4,-0.5 1.5,-0.5 0,-1.5 0,-3.5 0,-5.8 0,-2.3 0.1,-4.8 0.2,-7.5 0.1,-2.7 0.2,-5.5 0.3,-8.4 0.1,-2.9 0.3,-5.8 0.4,-8.6 0.3,-6.5 0.7,-13.4 1.3,-20.6 -3,0.5 -4.5,0.7 -7.7,1.2 z"
   class="st4" />
		<path
   style="fill:#49bcf8"
   id="path26"
   d="m 291.2,197.9 c 0,-1.1 0.1,-2.3 0.2,-3.4 0.1,-1.6 0.1,-2.3 0.2,-3.9 -1.6,0.5 -3.3,0.9 -5,1.3 -1.7,0.4 -3.6,0.7 -5.6,1.1 -2,0.4 -4.1,0.7 -6.4,1 -1.1,0.2 -2.3,0.3 -3.4,0.4 -1.1,0.1 -2.3,0.2 -3.4,0.3 0.1,1.2 0.2,2.3 0.3,3.4 0.1,1 0.2,1.9 0.3,2.9 0.1,1 0.2,1.8 0.3,2.6 1,0.2 2.1,0.2 3.1,0 1,-0.2 2,-0.3 3,-0.3 0,1.7 0,3.7 0,5.8 0,2.1 -0.1,4.3 -0.1,6.6 -0.1,2.3 -0.2,4.6 -0.3,7 -0.1,2.4 -0.2,4.7 -0.4,6.9 -0.3,5.3 -0.7,10.8 -1.1,16.5 4.6,-1.4 6.9,-2.2 11.5,-3.6 0.1,-5.4 0.1,-10.6 0.3,-15.5 0.1,-2.1 0.1,-4.2 0.1,-6.5 0,-2.2 0.1,-4.4 0.1,-6.6 0.1,-2.1 0.1,-4.2 0.2,-6.2 0.1,-2 0.2,-3.8 0.3,-5.4 0.9,-0.3 1.9,-0.6 2.8,-0.8 0.9,-0.2 1.9,-0.5 2.8,-0.9 0.1,-0.6 0.2,-1.6 0.2,-2.7 z m 29.8,-3.4 c 0.1,-2.2 0.2,-4.6 0.3,-7.2 -4,0.8 -6,1.2 -9.9,1.9 -0.1,4.7 -0.3,9.3 -0.5,13.7 -0.1,1.9 -0.1,3.9 -0.2,5.9 -0.1,2 -0.2,4 -0.3,5.9 -0.1,1.9 -0.2,3.8 -0.3,5.6 -0.1,1.8 -0.2,3.5 -0.3,4.9 -0.1,0.6 -0.1,1.3 -0.2,2.3 0,1 -0.2,2 -0.4,3 -0.2,1 -0.5,1.8 -0.9,2.6 -0.4,0.7 -1,1.1 -1.7,1.1 -0.5,0 -1,-0.2 -1.4,-0.7 -0.4,-0.5 -0.7,-1.2 -0.8,-2 -0.1,-1 -0.1,-2.1 -0.1,-3.4 0.1,-1.2 0.1,-2.3 0.2,-3.1 0.1,-0.8 0.1,-1.9 0.2,-3.2 0.1,-1.3 0.2,-2.8 0.3,-4.6 0.1,-1.8 0.2,-3.7 0.3,-5.8 0.1,-2.1 0.2,-4.2 0.4,-6.3 0.3,-4.9 0.6,-10.3 1,-16.4 -1.3,0.3 -2.6,0.6 -3.9,0.9 -1.1,0.2 -2.2,0.5 -3.5,0.8 -1.2,0.3 -2.3,0.6 -3.2,0.8 0,0.4 -0.1,1.4 -0.2,3.1 -0.1,1.7 -0.2,3.8 -0.3,6.3 -0.1,2.5 -0.2,5.3 -0.3,8.4 -0.1,3.1 -0.2,6.2 -0.3,9.3 -0.1,3.1 -0.1,6.1 -0.2,9 -0.1,2.9 -0.1,5.4 0,7.5 0,0.2 0,0.4 0,0.6 0,0.2 0,0.4 0.1,0.6 0.2,1.6 0.6,2.9 1.2,4.1 0.7,1.2 1.4,2.1 2.3,2.9 0.9,0.8 1.9,1.3 3,1.7 1.1,0.4 2.1,0.5 3.1,0.5 1.7,-0.1 3.4,-0.4 5,-1.1 1.6,-0.7 3.2,-1.8 4.5,-3.2 1.4,-1.4 2.5,-3.2 3.4,-5.4 0.9,-2.1 1.3,-3.2 1.3,-3.2 0,0 0.2,-1.5 0.4,-4.5 0.2,-2.5 0.4,-5.2 0.5,-8.2 0.2,-3 0.3,-6 0.5,-9 0.2,-3 0.3,-6 0.4,-8.8 0.3,-2.6 0.4,-5.1 0.5,-7.3 z m 30,9.4 c 0.8,-1.9 1.4,-3.9 1.8,-5.9 0.4,-2 0.4,-4.1 0.2,-6.1 -0.2,-1.4 -0.5,-2.6 -0.9,-3.6 -0.4,-1.1 -1,-2 -1.7,-2.7 -0.7,-0.7 -1.7,-1.2 -2.9,-1.5 -1.2,-0.3 -2.6,-0.3 -4.3,0 -2.9,0.4 -5.7,1 -8.6,1.8 -2.9,0.8 -5.5,1.8 -7.9,3 0.1,2.2 0.1,4.7 0,7.4 0,2.7 -0.1,5.6 -0.1,8.5 -0.1,2.9 -0.1,5.9 -0.3,8.9 -0.1,3 -0.2,5.9 -0.3,8.7 -0.2,6.5 -0.7,13.4 -1.1,20.4 4.2,-1.7 6.3,-2.5 10.4,-4.3 0.1,-2.5 0.2,-5 0.3,-7.5 0.1,-2.1 0.2,-4.3 0.3,-6.5 0.1,-2.2 0.2,-4.2 0.3,-5.9 0.3,-0.2 0.5,-0.2 0.8,-0.4 0.1,0.6 0.3,1.3 0.6,2.1 0.3,0.9 0.6,1.9 1,2.9 0.4,1.1 0.8,2.2 1.3,3.5 0.5,1.2 0.9,2.4 1.4,3.5 1.1,2.7 2.2,5.7 3.5,8.9 3.9,-2.3 5.9,-3.5 9.7,-5.9 -1.2,-2.3 -2.4,-4.7 -3.6,-7.1 -1,-2 -2.2,-4.2 -3.4,-6.5 -1.2,-2.3 -2.3,-4.4 -3.4,-6.3 1.4,-1.1 2.7,-2.5 3.9,-4.2 1.2,-1.5 2.2,-3.3 3,-5.2 z m -5.9,-4.1 c -0.7,1.2 -1.5,2.3 -2.5,3.5 -1,1.1 -2,2.1 -3.2,3 -1.1,0.9 -2.1,1.4 -2.9,1.6 0.3,-4.9 0.4,-7.4 0.6,-12.3 0.4,-0.1 0.8,-0.1 1.4,-0.2 0.5,-0.1 1,-0.2 1.5,-0.2 0.7,-0.1 1.4,-0.2 2.1,-0.2 0.7,0 1.3,0 1.9,0.1 0.6,0.1 1,0.3 1.4,0.6 0.3,0.3 0.6,0.7 0.6,1.3 0.1,0.6 -0.2,1.6 -0.9,2.8 z m 37.6,-17.9 c -0.8,-1.2 -1.8,-2.1 -2.9,-2.7 -1.1,-0.6 -2.3,-1 -3.5,-1.1 -1.2,-0.1 -2.4,-0.1 -3.5,0.1 -2.6,0.4 -5,1 -7.4,1.9 -2.4,0.9 -4.6,1.9 -6.8,2.8 0,9.2 -0.1,18.4 -0.3,27.6 -0.1,9.2 -0.7,18.3 -1.8,27.6 1.4,0 2.9,-0.2 4.5,-0.5 1.8,-0.4 3.6,-1.1 5.4,-1.9 1.8,-0.9 3.6,-1.9 5.4,-3 1.7,-1.2 3.4,-2.4 4.9,-3.9 1.5,-1.4 2.8,-3 3.9,-4.6 1.1,-1.7 1.9,-3.4 2.4,-5.3 0.5,-1.9 0.7,-3.8 0.4,-5.8 -0.2,-1.5 -0.5,-2.7 -1,-3.8 -0.5,-1.1 -1,-2 -1.6,-2.8 -0.6,-0.8 -1.3,-1.4 -2,-1.9 -0.7,-0.5 -1.3,-0.9 -1.9,-1.1 1.1,-0.7 2.1,-1.6 3,-2.8 1,-1.2 1.8,-2.5 2.5,-3.9 0.7,-1.5 1.2,-3.1 1.5,-4.8 0.3,-1.7 0.4,-3.5 0.2,-5.3 0,-2 -0.6,-3.6 -1.4,-4.8 z m -7.6,33.1 c -0.5,1 -1.3,1.9 -2.1,2.6 -0.9,0.7 -1.8,1.3 -2.8,1.8 -1,0.5 -1.9,0.9 -2.7,1.1 0,-1.3 0,-2.4 0.1,-3.3 0,-1 0.1,-1.9 0.1,-2.7 0,-0.9 0.1,-1.8 0.1,-2.7 0,-1 0.1,-2 0.1,-3.3 0.2,-0.1 0.3,-0.1 0.5,-0.2 0.2,0 0.3,-0.1 0.5,-0.1 0.6,-0.1 1.3,-0.2 2.1,-0.2 0.7,0 1.5,0.2 2.1,0.4 0.7,0.3 1.2,0.7 1.7,1.2 0.5,0.5 0.8,1.2 0.9,2.1 0.2,1.2 0,2.3 -0.6,3.3 z M 375,194.2 c -0.4,0.6 -0.9,1.1 -1.6,1.7 -0.7,0.6 -1.5,1.1 -2.4,1.6 -0.9,0.5 -1.8,1 -2.7,1.4 0,-0.6 0,-1.3 0.1,-2.2 0.1,-0.8 0.1,-1.7 0.1,-2.5 0,-0.8 0.1,-1.7 0.1,-2.4 0,-0.8 0,-1.4 0.1,-2 0.3,0 0.4,-0.1 0.6,-0.1 0.5,-0.1 1.1,-0.1 1.8,-0.1 0.7,0 1.3,0.1 2,0.3 0.7,0.2 1.2,0.5 1.7,0.9 0.4,0.4 0.7,1 0.8,1.7 0,0.6 -0.2,1.2 -0.6,1.7 z m 44.3,-8.7 c -0.2,-1.7 -0.6,-3.4 -1.1,-5.1 -0.5,-1.7 -1.2,-3.1 -2.1,-4.4 -0.9,-1.3 -2,-2.3 -3.4,-2.9 -1.4,-0.7 -3.1,-0.9 -5,-0.6 -2.3,0.3 -4.4,1.2 -6.3,2.7 -1.9,1.5 -3.7,3.4 -5.3,5.7 -1.6,2.3 -3,5 -4.2,7.9 -1.2,2.9 -2.1,5.9 -2.8,9.1 -0.7,3.1 -1.1,6.3 -1.4,9.4 -0.2,3.1 -0.2,6 0.2,8.7 0.3,2.6 0.9,4.8 1.6,6.5 0.7,1.7 1.6,3.1 2.6,4.1 1,1 2.2,1.6 3.4,1.9 1.3,0.3 2.6,0.3 4.1,0 1.7,-0.4 3.4,-1.2 5.2,-2.5 1.8,-1.2 3.5,-2.8 5.1,-4.8 1.6,-2 3.1,-4.2 4.5,-6.8 1.4,-2.5 2.5,-5.3 3.4,-8.3 0.9,-3 1.5,-6.3 1.8,-9.7 0.3,-3.5 0.2,-7.1 -0.3,-10.9 z m -8.2,14.1 c -0.2,2.5 -0.7,4.9 -1.4,7.2 -0.7,2.3 -1.8,4.3 -3.1,6.1 -1.3,1.8 -3,2.9 -5,3.3 -0.5,0.1 -1,0.1 -1.5,-0.2 -0.5,-0.2 -0.9,-0.5 -1.3,-0.9 -0.4,-0.4 -0.7,-0.8 -0.9,-1.3 -0.2,-0.5 -0.4,-1.1 -0.5,-1.6 -0.1,-1.1 -0.2,-2.5 -0.2,-4.1 0,-1.6 0.2,-3.3 0.5,-5 0.3,-1.7 0.7,-3.5 1.2,-5.2 0.5,-1.7 1.1,-3.3 1.9,-4.7 0.8,-1.4 1.7,-2.6 2.8,-3.6 1.1,-1 2.3,-1.5 3.7,-1.8 0.7,-0.1 1.3,0 1.7,0.3 0.5,0.3 0.8,0.8 1.1,1.3 0.3,0.5 0.5,1.1 0.6,1.8 0.2,0.6 0.3,1.2 0.3,1.8 0.3,1.9 0.3,4.1 0.1,6.6 z m 25.1,-30.4 c -1,0.3 -2,0.5 -3,0.8 -1,0.3 -2.1,0.6 -3.1,0.9 -1,0.3 -1.9,0.5 -2.7,0.8 -0.6,5.8 -1.2,11.5 -1.7,17.3 -0.5,5.8 -1.1,11.5 -1.7,17.3 1.2,-0.4 2.5,-0.7 3.7,-1.1 1.2,-0.4 2.5,-0.7 3.7,-1 1.1,-6.1 2.2,-12.1 3.3,-18.1 1.1,-6 2.4,-11.9 4,-17.7 -0.7,0.3 -1.5,0.6 -2.5,0.8 z m -11,41.1 c -1.1,0.3 -2,0.7 -2.8,1.3 -0.7,0.6 -1.3,1.2 -1.8,2 -0.5,0.7 -0.8,1.5 -0.9,2.4 -0.2,0.8 -0.2,1.7 -0.1,2.6 0.1,0.8 0.3,1.5 0.7,2.2 0.4,0.7 0.8,1.3 1.3,1.8 0.5,0.5 1.2,0.8 2,1 0.8,0.2 1.6,0.1 2.5,-0.1 1.3,-0.4 2.5,-0.9 3.5,-1.5 1,-0.7 1.8,-1.4 2.3,-2.2 0.6,-0.8 1,-1.7 1.3,-2.6 0.2,-0.9 0.3,-1.8 0.2,-2.6 -0.2,-1.5 -1,-2.7 -2.4,-3.6 -1.4,-1.1 -3.3,-1.3 -5.8,-0.7 z"
   class="st2" />
	</g>
</g>
<g
   transform="translate(-10.178192,-69.78245)"
   id="outlined_overlap">
	<path
   style="fill:#ef3384"
   id="path31"
   d="m 556,144.3 0.2,-0.1 -5.2,-3.9 c -17.9,-14.1 -38,-24.8 -59.9,-31.9 l -4.3,-1.4 -0.9,4.4 c -0.2,1.2 -0.4,2 -0.5,2.6 l -0.1,0.4 c -5.8,29.3 -1.8,60.2 11.4,87 l 0.1,0.2 1.2,2.3 1.8,3.7 3.6,-2 c 10.1,-5.4 19.9,-12.4 29.1,-20.9 8.4,-7.6 16.6,-16.8 24.6,-27.4 3.2,-3.9 2.6,-9.7 -1.1,-13 z"
   class="st4" />
	<path
   style="fill:#49bcf8"
   id="path33"
   d="m 172.5,238.5 c -0.7,-0.7 -1.5,-1.5 -2.2,-2.3 -1.2,-1.4 -2.4,-3.1 -3.7,-5 l -1.3,-1.9 -2.3,0.1 c -1.9,0.1 -3.6,0.1 -5.2,0.1 -4.6,0 -7.6,-0.3 -9.7,-0.8 2.6,-1.7 5.3,-3.2 7.9,-4.6 0.8,-0.4 1.5,-0.9 2.3,-1.3 l 2.6,-1.5 -0.7,-2.9 -2.5,-10.3 c -2.3,-9.1 -3.1,-18 -2.3,-26.6 0.7,-7.7 2.8,-15.4 6.1,-22.8 l 1.2,-2.5 -2,-2 -0.5,-0.5 c -0.2,-0.2 -0.5,-0.5 -0.7,-0.7 -6,-5.9 -12.2,-12 -21.3,-12 -0.5,0 -1,0 -1.5,0.1 l -0.7,-0.1 -0.7,0.3 c -20.9,9.6 -16.7,47.3 -14.4,67.6 0.2,1.9 0.4,3.7 0.6,5.3 1.6,15.6 6.8,29.1 14.5,37 4.3,4.4 11.3,7.4 17.6,7.4 0.3,0 0.6,0 1,0 4.1,-0.2 7.4,-1.7 9.5,-4.4 3.9,-5 7.3,-8.7 8.6,-10.1 l 2.6,-2.9 z"
   class="st2" />
	<path
   style="fill:#555555"
   id="path35"
   d="m 205.4,252 0.4,2.5 c 1.7,11.9 -1.7,23.9 -9.5,33 l -4.6,5.3 4.5,-0.1 c 21.9,-0.6 39.8,-3.1 53.2,-7.6 5.6,-1.9 12.8,-5.5 21.6,-10.9 4.1,-2.5 7.6,-5.8 10.3,-9.9 l 1.8,-2.7 -74.6,-9.3 z m -20.6,-115.4 0.5,3 2.8,-1.8 30.6,-11.9 c 15.6,-6.1 26.1,-10.1 31.3,-12.2 l 10.3,-3.3 -8.6,-4.3 c -26.2,-13.2 -57.2,-15.3 -85,-5.9 l -4.7,1.6 3.1,2.3 c 10.5,7.8 17.7,19.6 19.7,32.5 z m 54,68.7 5.3,-4.7 -7.3,1.3 c -14.3,2.5 -40.8,7.1 -59.5,7.1 h -1.1 l -0.6,0.7 c -5.7,6.5 -21.5,15.4 -22.4,15.9 l -5.9,3.4 6.8,0.3 c 1.2,0.1 2.4,0.1 3.7,0.1 8.9,0 20,-1.3 27.9,-2.6 9.5,-1.7 29.4,-7.2 44.9,-15.5 3,-1.6 6.1,-4.1 8.2,-6 z m 219.1,-40.2 c -0.8,-1.6 -2.3,-3 -4,-3.7 l -0.4,-0.1 c -2.7,-0.6 -6.1,0.6 -7.3,1.7 -1.5,1.3 -2.6,3.8 -2.7,5.4 -0.1,2 0.7,4.1 2.3,5.5 l 0.3,0.2 0.3,0.1 c 1,0.4 3.3,1 4.9,1 0.2,0 0.3,0 0.4,0 h 0.3 l 0.3,-0.1 c 2.3,-0.9 4.4,-3.1 5,-4.4 0.9,-1.8 1.1,-3.6 0.7,-5.3 z m 12.3,47.5 c -0.8,-0.8 -2.5,-1.5 -5.4,-0.4 -2.7,1 -4.3,2.9 -4.3,5.1 0,2.1 1.5,4.1 3.9,5.2 l 0.8,0.4 0.8,-0.4 c 1.4,-0.6 2.8,-1.3 4.2,-1.9 l 0.9,-0.4 0.2,-0.9 c 0.8,-2.8 0.3,-5.4 -1.1,-6.7 z m -25.1,-97.5 v 0 c 1.4,1.2 3.2,1.8 4.9,1.8 0.3,0 0.6,0 0.9,-0.1 1.2,-0.1 3,-0.7 4.4,-2.4 l 0.2,-0.3 0.1,-0.3 c 0.3,-1 0.4,-1.9 0.1,-2.9 l -0.4,-0.9 -0.1,-0.2 c -1.5,-2.7 -4.8,-4 -7.4,-3.8 -2.6,0.2 -4.4,1.6 -5,3.9 -0.3,1.9 0.4,3.7 2.3,5.2 z m -25.7,102.5 c -2.4,-7.6 -5.2,-16.2 -7.4,-23 v 0 c -3.1,-9.7 -5.3,-19.6 -6.6,-29.7 l -0.1,-0.8 c 0,-0.2 -0.1,-0.4 -0.1,-0.6 -0.3,-2.5 -0.4,-5 -0.3,-7.6 l 1.5,-43.5 c 0.2,-5 1.9,-10 5,-14 l 2.2,-2.9 -3.6,-0.3 c -9.8,-0.9 -19.7,-1.4 -29.6,-1.5 h -0.8 l -0.6,0.6 c -4.6,4.4 -7.3,10.6 -7.5,16.9 -0.3,10.2 -0.9,35.3 -1.2,46.9 -0.1,2.7 0.1,5.4 0.4,8.1 l 0.1,0.4 c 1.5,11.3 4.1,22.4 7.7,33.1 l 8.3,24.6 c 2.5,7.5 6.4,14.4 11.6,20.4 l 0.8,0.9 1.2,-0.3 c 9,-2.3 18,-5 26.9,-7.9 l 2.7,-0.9 -1.7,-2.2 c -4,-4.9 -7,-10.6 -8.9,-16.7 z"
   class="st6" />
	<path
   style="fill:#bfbfbf"
   id="path37"
   d="m 384.8,225.1 -8.3,-24.6 c -3.6,-10.6 -6.1,-21.5 -7.7,-32.6 l -0.2,-1.4 c -0.4,-2.8 -0.5,-5.6 -0.4,-8.4 0.3,-11.6 0.9,-36.7 1.2,-46.9 0.1,-5.1 1.8,-10.1 4.7,-14.3 l 2.2,-3.2 h -3.9 c -27.2,0.3 -54.5,3.7 -81,10.2 l -15.2,3.7 -25.5,8 h -0.1 c -5.2,2 -15.4,6 -30.4,11.8 l -31.1,12.1 -26.9,17.3 -0.2,0.5 c -3.7,7.8 -5.9,15.9 -6.7,24.1 -0.8,8.5 0,17.5 2.3,26.6 l 2.8,11.2 2.3,-1.5 c 5.3,-3.3 9,-6.5 12.2,-10.4 0.2,-0.2 0.5,-0.4 0.8,-0.4 18.6,0.3 45.9,-4.5 60.7,-7.1 5.3,-0.9 8.2,-1.4 9.3,-1.5 0.4,0 0.7,0.2 0.9,0.5 0.2,0.3 0.2,0.8 -0.1,1.1 -2.2,3.1 -9.7,10.2 -15.1,13.1 -17,9.1 -37.2,14.2 -45.5,15.7 -0.3,0.1 -7.4,1.3 -16,2.1 l -3.6,0.3 2.1,2.9 c 0.6,0.8 1.2,1.5 1.7,2.1 3,3.5 5.9,5.6 8.6,6.3 l 0.2,0.1 c 4.1,2.1 8.7,3.8 13.6,5.1 4.9,1.3 10.3,2.2 15.9,2.7 l 76.1,9.5 h 0.1 0.1 c 38.2,-0.3 74.8,-4.6 108.9,-12.8 l 3,-0.7 -1.9,-2.5 c -4.1,-5.6 -7.6,-11.9 -9.9,-18.7 z m 112,-23.7 c -13.2,-26.8 -17.2,-57.7 -11.4,-87 l 0.1,-0.5 c 0.1,-0.6 0.3,-1.7 0.6,-3 l 0.4,-1.8 -1.8,-0.5 c -4.6,-1.3 -9,-2.5 -13.3,-3.4 -3.8,-0.8 -9.1,-1.9 -16.1,-3.2 l -1.4,3.7 c 1.7,1 3,2.5 3.6,4.1 0,0 0.6,1.5 0.4,3.6 -0.1,1.3 -1.7,3.1 -2.5,3.8 -1.2,0.9 -2.7,1.5 -4.2,1.7 -2.6,0.3 -5.3,-0.5 -7.3,-2.2 -1.7,-1.4 -2.7,-3.1 -3,-4.9 -0.2,-1.6 0.4,-2.9 1.1,-4.5 l 0.1,-0.3 c 0.3,-0.6 2.5,-2.3 4.4,-2.8 l -0.1,-3.9 c -6.8,-1.2 -14.1,-2.3 -21.7,-3.4 -2.2,-0.3 -4.6,-0.6 -7.5,-0.9 l -3,1.9 c -3.7,3.9 -5.8,9.2 -6,14.5 l -1.5,43.5 c -0.1,2.5 0,4.9 0.3,7.3 l 0.1,0.6 c 1.2,10.2 3.5,20.3 6.6,30.1 2.2,6.8 5,15.5 7.4,23 2.1,6.6 5.4,12.6 9.8,18 l 0.9,1.1 1.3,-0.5 c 8.9,-3.1 17.8,-6.6 26.5,-10.3 l 2.6,-1.1 -1.9,-2.1 c -1.3,-1.4 -2,-3.1 -2,-4.8 0,-3.1 2,-5.7 5.6,-7 3.9,-1.4 6.2,-0.4 7.5,0.8 1.2,1.1 2,2.9 2.1,4.9 l 0.2,2.9 2.7,-1.3 c 7,-3.4 14,-7.1 20.8,-10.9 l 1.6,-0.9 z m -37.6,-29.7 v 0 c -0.8,1.6 -3.6,4.5 -6.2,5.4 -0.5,0.2 -1.2,0.2 -1.6,0.2 -2.7,0 -5.8,-1.2 -6.4,-1.5 -2.3,-1.8 -3.6,-4.6 -3.4,-7.5 0.1,-2 1.4,-5.1 3.3,-6.8 1.4,-1.2 4.2,-2.2 7.4,-2.2 0.7,0 1.4,0 2.1,0.1 4.2,0.6 5.4,4.2 5.6,5.3 0.4,1.7 0.4,4.6 -0.8,7 z"
   class="st7" />
	<path
   id="path39"
   d="m 461.9,164.2 c -0.6,-2.3 -2.5,-6.1 -7.3,-6.8 -4.8,-0.7 -9,0.8 -11,2.5 -2.4,2.1 -3.8,5.7 -4,8.2 -0.2,3.5 1.3,7 4.2,9.2 0.7,0.6 4.3,1.9 7.6,1.9 0.5,0 1.4,-0.1 2.3,-0.3 3.3,-1.1 6.4,-4.4 7.4,-6.4 1.3,-2.6 1.4,-5.9 0.8,-8.3 z m -6.3,5.6 c -0.5,0.9 -2.3,2.7 -4,3.4 -1.2,0.1 -3.5,-0.5 -4.4,-0.9 -1.1,-1 -1.7,-2.4 -1.6,-3.8 v 0 c 0.1,-1 0.9,-3.1 2,-4.1 0.7,-0.6 3.5,-1.6 5.6,-1.2 0,0 0.1,0 0.1,0 1.3,0.5 2.4,1.5 2.9,2.7 0.3,1.3 0.1,2.6 -0.6,3.9 z M 41.7,195.2 c 0.1,0 0.2,0 0.3,0 l 59.8,-6.9 c 1.6,-0.2 2.8,-1.7 2.6,-3.3 -0.2,-1.6 -1.7,-2.8 -3.3,-2.6 l -59.8,6.9 c -1.6,0.2 -2.8,1.7 -2.6,3.3 0.2,1.5 1.5,2.6 3,2.6 z M 95.9,211 c -0.2,-1.6 -1.7,-2.8 -3.3,-2.6 l -59.8,6.9 c -1.6,0.2 -2.8,1.7 -2.6,3.3 0.2,1.5 1.5,2.7 3,2.7 0.1,0 0.2,0 0.3,0 l 59.8,-6.9 c 1.6,-0.3 2.8,-1.8 2.6,-3.4 z m 12.9,18.6 -59.8,6.9 c -1.6,0.2 -2.8,1.7 -2.6,3.3 0.2,1.5 1.5,2.7 3,2.7 0.1,0 0.2,0 0.3,0 l 59.8,-6.9 c 1.6,-0.2 2.8,-1.7 2.6,-3.3 -0.2,-1.7 -1.7,-2.9 -3.3,-2.7 z m 447.9,-87.3 c 0,0 -3.9,-3.1 -3.9,-3.1 l -0.1,-0.1 c 0,0 0,0 0,0 l -0.4,-0.3 c -23.3,-18.3 -51,-31.3 -80,-37.5 -4.8,-1 -11.8,-2.4 -21.6,-4.2 -7.8,-1.4 -16.3,-2.8 -25.4,-4 -45.2,-6.1 -90.5,-3.8 -134.8,7 l -15.3,3.7 -12,3.8 -9.7,-4.9 C 226.3,89.1 194.2,86.8 165.4,96.6 l -0.5,0.2 c -1.1,0.4 -3.3,1.1 -6.4,2.2 -1.1,0.4 -1.9,1.4 -2,2.5 -0.1,1.1 0.4,2.3 1.4,2.9 l 1.1,0.7 c 0.3,0.2 0.4,0.3 0.5,0.3 12.2,7.5 20.3,20.4 21.7,34.7 l -19.4,12.5 c -0.3,-0.3 -0.6,-0.6 -1,-0.9 -6.5,-6.4 -13.8,-13.6 -24.9,-12.5 h -0.5 l -0.4,0.2 c -22.9,9.8 -18.5,48.9 -16.1,69.9 0.2,1.9 0.4,3.7 0.6,5.2 0.9,9.4 4.1,26.9 15,38.2 4.6,4.8 12.3,8 19.1,8 0.4,0 0.7,0 1,0 4.7,-0.2 8.5,-2 11,-5.2 3.9,-5 7.2,-8.6 8.9,-10.4 0,0 0,0 0,0 1,0.5 2,1 3.1,1.3 4.3,2.1 9,3.9 14.1,5.2 3.1,0.8 6.4,1.5 9.8,2 2.2,11.1 -0.9,22.8 -8.3,31.4 -0.6,0.7 -2,2.3 -4.1,4.8 l -1.8,2.2 c -0.8,0.9 -0.9,2.1 -0.4,3.2 0.5,1.1 1.6,1.7 2.7,1.7 v 0 c 25.4,-0.2 45.9,-2.9 61.1,-7.9 5.9,-2 13.4,-5.7 22.4,-11.3 5.5,-3.4 10,-8.1 13.2,-13.8 40,-0.4 78.3,-5.2 113.8,-14.1 35.9,-9.1 69.8,-22.7 101,-40.5 11.4,-5.7 22.5,-13.4 33,-23 8.5,-7.7 16.8,-17 24.8,-27.6 3.8,-5.1 2.9,-12.5 -2.2,-16.4 z m -103.1,-31.5 0.3,0.7 c 0.2,0.6 0.1,1.1 -0.1,1.7 -1,1.2 -2.3,1.6 -3.1,1.7 -1.5,0.2 -3.1,-0.3 -4.3,-1.3 -0.6,-0.5 -1.9,-1.7 -1.5,-3.1 0.4,-1.5 1.5,-2.3 3.2,-2.4 1.9,-0.2 4.4,0.8 5.5,2.7 z m -287.4,-8.2 c 0.2,-0.1 0.4,-0.1 0.5,-0.2 l 0.5,-0.2 c 27.3,-9.2 57.7,-7.1 83.5,5.8 l 4.2,2.1 -5.5,1.7 -0.2,0.1 c -5.3,2.1 -15.8,6.1 -31.4,12.2 l -30.8,12 -0.4,0.2 c -1.9,-13.5 -9.3,-25.6 -20.4,-33.7 z m -5.3,149.1 c -1.7,2.2 -4.5,2.8 -6.5,2.9 -5.3,0.3 -11.8,-2.3 -15.5,-6.2 -7,-7.3 -11.9,-20 -13.4,-34.7 -0.2,-1.6 -0.4,-3.4 -0.6,-5.3 -2.2,-19.3 -6.2,-55.2 12.1,-63.5 8.1,-0.6 13.7,5 19.7,10.8 0.4,0.4 0.8,0.8 1.2,1.2 -3.5,7.8 -5.7,15.9 -6.5,24.1 -0.8,9 0,18.4 2.4,27.9 l 2.5,10.3 c -0.7,0.4 -1.5,0.8 -2.2,1.3 -3.3,1.9 -6.7,3.8 -10.1,6 -1,0.6 -1.5,1.8 -1.3,2.9 0.2,1.1 0.9,2.1 2,2.4 3.4,1.1 8.1,1.5 13.1,1.5 1.8,0 3.6,-0.1 5.4,-0.1 1.3,2 2.7,3.9 4,5.4 0.8,1 1.6,1.8 2.5,2.6 -1.8,2.1 -5,5.7 -8.8,10.5 z M 157,225.8 c 7,-3.9 14.1,-8 20.1,-14.7 h 0.2 c 18.9,0 45.4,-4.6 59.8,-7.2 0.1,0 0.2,0 0.3,-0.1 -2.5,2.2 -5.4,4.4 -7.8,5.7 -15.4,8.2 -34.9,13.6 -44.3,15.3 -8.2,1.4 -21.6,3 -31.1,2.5 1,-0.5 1.9,-1 2.8,-1.5 z m 112.9,46.7 c -8.6,5.3 -15.8,8.9 -21.2,10.7 -13.2,4.4 -30.9,6.9 -52.6,7.5 0.8,-0.9 1.3,-1.5 1.6,-1.9 8.2,-9.6 11.8,-22.2 9.9,-34.5 0.2,0 0.3,0 0.5,0.1 l 71.3,8.9 c -2.3,3.7 -5.6,6.9 -9.5,9.2 z m 15.1,-14.6 -76.1,-9.5 c -5.6,-0.5 -10.8,-1.4 -15.7,-2.7 -4.8,-1.3 -9.2,-2.9 -13.2,-4.9 l -0.3,-0.1 -0.3,-0.1 c -2.3,-0.6 -4.9,-2.5 -7.6,-5.7 -0.5,-0.6 -1.1,-1.3 -1.6,-2 8.8,-0.8 16,-2.1 16.2,-2.1 8.4,-1.5 28.9,-6.7 46.1,-15.9 5.8,-3.1 13.5,-10.3 15.8,-13.7 0.7,-0.9 0.7,-2.2 0.2,-3.2 -0.5,-1 -1.7,-1.6 -2.8,-1.5 -1.3,0.1 -4,0.6 -9.5,1.5 -14.7,2.6 -42,7.4 -60.3,7.1 -0.9,0 -1.8,0.4 -2.4,1.1 -3.4,4.2 -7.4,7.2 -11.7,10 l -2.1,-8.5 c -2.2,-8.9 -3,-17.6 -2.2,-25.9 0.7,-8 2.9,-15.9 6.5,-23.4 l 26,-16.8 30.2,-11.7 c 15.5,-6 25.9,-10.1 31.3,-12.2 l 25.4,-8 15.2,-3.7 c 26.6,-6.5 53.5,-9.8 80.6,-10.1 -3.1,4.5 -4.9,9.9 -5,15.4 -0.3,10.2 -0.9,35.3 -1.2,46.9 -0.1,2.9 0.1,5.8 0.5,8.7 0,0.1 0,0.3 0.1,0.5 0,0.1 0,0.1 0,0.2 0,0.3 0.1,0.6 0.1,0.7 v 0 c 1.6,11.2 4.2,22.3 7.8,33 l 8.3,24.6 c 2.4,7.1 5.9,13.6 10.5,19.5 -34.3,7.9 -70.7,12.2 -108.8,12.5 z m 114.9,-14.3 c -5,-5.8 -8.8,-12.5 -11.3,-19.8 l -8.3,-24.6 c -3.6,-10.7 -6.2,-21.8 -7.7,-33.1 v 0 c 0,0 0,-0.1 0,-0.1 -0.3,-2.6 -0.5,-5.2 -0.4,-7.8 0.3,-11.6 0.9,-36.7 1.2,-46.9 0.2,-5.9 2.6,-11.5 6.9,-15.6 9.8,0.1 19.6,0.6 29.4,1.5 -3.3,4.3 -5.2,9.6 -5.4,15.1 l -1.5,43.5 c -0.1,2.7 0,5.3 0.3,7.9 0,0.2 0,0.4 0.1,0.6 0,0.1 0,0.1 0,0.2 0,0.1 0,0.2 0,0.3 v 0.2 0 c 1.3,10.2 3.5,20.3 6.7,30 2.2,6.8 5,15.5 7.4,23 2,6.4 5.1,12.3 9.2,17.6 -8.7,3 -17.6,5.6 -26.6,8 z m 69.6,-24.8 c -1.4,0.6 -2.8,1.3 -4.2,1.9 -1.7,-0.8 -2.7,-2.1 -2.7,-3.4 0,-1.3 1.1,-2.5 3,-3.2 0.9,-0.3 2.6,-0.8 3.4,0 0.6,0.6 1,2.5 0.5,4.7 z m 6.2,-2.9 c -0.2,-2.5 -1.1,-4.7 -2.7,-6.2 -1.4,-1.3 -4.4,-3.1 -9.5,-1.2 -4.3,1.6 -6.9,4.9 -6.9,8.9 0,2.3 0.9,4.4 2.5,6.2 -8.6,3.7 -17.4,7.1 -26.4,10.2 -4.2,-5.2 -7.4,-11 -9.5,-17.4 -2.4,-7.6 -5.2,-16.2 -7.4,-23 -3.1,-9.7 -5.3,-19.7 -6.5,-29.7 0,-0.1 0,-0.1 0,-0.2 v -0.4 c -0.3,-2.3 -0.4,-4.6 -0.3,-6.9 l 1.5,-43.5 c 0.2,-5.4 2.6,-10.7 6.6,-14.3 l 0.2,-0.2 v 0 c 2.5,0.3 5,0.6 7.4,0.9 7.6,1 14.9,2.2 21.6,3.3 -2.5,0.5 -5.2,2.6 -5.8,3.9 -0.9,1.9 -1.7,3.7 -1.4,5.9 0.3,2.2 1.6,4.4 3.7,6.1 2.1,1.7 4.8,2.7 7.5,2.7 0.5,0 0.9,0 1.4,-0.1 1.9,-0.2 3.7,-1 5.3,-2.1 0,0 3,-2.6 3.2,-5.2 0.2,-2.6 -0.6,-4.5 -0.6,-4.5 -0.9,-2.1 -2.5,-3.8 -4.4,-5.1 7,1.3 12.3,2.4 16.1,3.2 4.4,0.9 8.8,2.1 13.2,3.3 -0.3,1.5 -0.5,2.6 -0.6,3.2 l -0.1,0.4 c -5.9,29.7 -1.8,61.1 11.6,88.3 l 0.1,0.2 c 0.2,0.5 0.7,1.3 1.2,2.5 -7.1,3.7 -14,7.3 -21,10.8 z M 554.1,155 c -7.8,10.3 -15.9,19.3 -24.1,26.8 -9.1,8.3 -18.6,15.1 -28.3,20.3 -0.5,-1.1 -0.9,-1.9 -1.2,-2.3 l -0.1,-0.2 c -12.8,-26 -16.7,-56 -11.1,-84.4 l 0.1,-0.4 c 0.1,-0.5 0.3,-1.4 0.5,-2.6 21.2,6.9 41.2,17.5 58.6,31.2 0,0 0.1,0.1 0.1,0.1 v 0 c 0,0 2.2,1.7 4.4,3.5 2.5,1.9 3,5.5 1.1,8 z" />
	<g
   id="g49">
		<path
   id="path41"
   d="m 408.8,100.9 c -0.9,-0.9 -2.1,-1.5 -3.2,-1.5 -0.2,0 -0.3,0 -0.5,0 -3.1,0.4 -4.7,0.6 -7.9,1.1 -1.7,0.3 -2.9,1.7 -3.1,3.6 -0.1,1 -0.1,2.1 -0.2,3.1 -0.3,-1 -0.6,-2 -0.9,-3.1 -0.7,-2.1 -2.5,-3.6 -4.5,-3.5 -0.1,0 -0.1,0 -0.2,0 -1,0.1 -1.9,0.2 -2.8,0.2 -0.8,0.1 -1.7,0.1 -2.5,0.2 -0.8,0.1 -1.5,0.1 -2.1,0.1 -0.5,0 -0.8,0 -1.4,0.1 -0.2,0 -0.5,0 -1.1,0 -0.1,0 -0.2,0 -0.3,0 -1.7,0.1 -3,1.3 -3.4,3.1 -0.2,-0.3 -0.5,-0.6 -0.7,-0.9 -0.9,-0.9 -2,-1.3 -3,-1.3 -0.2,0 -0.4,0 -0.6,0.1 -3.9,0.9 -5.9,1.4 -9.8,2.5 -1.7,0.5 -2.9,2.2 -2.9,4.3 -0.1,4.7 -0.1,9.3 -0.2,13.9 0,-0.6 -0.1,-1.1 -0.1,-1.7 -0.2,-2.9 -0.4,-5.6 -0.5,-7.9 -0.1,-2.4 -0.2,-4.4 -0.3,-6.1 -0.1,-1.5 -0.7,-3 -1.8,-4 -0.9,-0.8 -1.9,-1.2 -2.9,-1.1 -0.2,0 -0.5,0.1 -0.7,0.1 -2.7,0.8 -5.6,1.6 -8.5,2.3 -3,0.7 -6,1.4 -8.9,2 -1,0.2 -1.9,0.9 -2.5,1.9 -0.2,-0.5 -0.6,-1 -0.9,-1.4 -0.9,-0.9 -2,-1.4 -3.2,-1.2 -0.2,0 -0.3,0.1 -0.5,0.1 -1.6,0.5 -3.3,1 -5,1.5 -1.7,0.5 -3.6,1 -5.6,1.5 -2,0.5 -4.1,1 -6.2,1.5 -1.1,0.2 -2.2,0.5 -3.3,0.7 -1.1,0.2 -2.2,0.4 -3.3,0.6 -0.1,0 -0.2,0 -0.3,0.1 -1,0.3 -1.9,1 -2.6,2 -0.3,0.5 -0.6,1.1 -0.8,1.7 -1,-0.8 -2.2,-1.5 -3.5,-1.8 -2,-0.6 -4.3,-0.5 -6.8,0.4 -1.3,0.4 -2.8,0.8 -4.2,1.5 -1.3,0.6 -2.6,1.2 -3.9,1.8 -1.3,0.7 -2.6,1.4 -3.9,2.2 -1.4,0.9 -2.4,2.7 -2.4,4.5 -0.1,2.3 -0.2,4.9 -0.3,7.6 -0.1,2.8 -0.3,5.6 -0.4,8.6 -0.2,3.1 -0.3,6 -0.4,8.8 0,0.6 -0.1,1.2 -0.1,1.8 -0.1,-1.7 -0.3,-3.5 -0.4,-5.3 -0.2,-3 -0.4,-5.8 -0.6,-8.6 -0.2,-2.8 -0.3,-5.4 -0.4,-7.7 -0.1,-2.3 -0.2,-4.4 -0.2,-6 0,-1.5 -0.7,-2.9 -1.7,-3.6 -0.8,-0.6 -1.9,-0.8 -2.9,-0.5 -0.2,0.1 -0.5,0.2 -0.7,0.3 -2.8,1.4 -5.6,2.7 -8.5,3.9 -3,1.3 -6,2.5 -8.8,3.6 -1.7,0.7 -3,2.4 -3.2,4.4 -0.2,1.5 -0.4,3.2 -0.6,4.9 -0.1,-0.2 -0.2,-0.4 -0.3,-0.6 -0.8,-1.5 -1.8,-2.8 -3,-3.7 -1.2,-1 -2.6,-1.6 -4.2,-1.8 -1.6,-0.3 -3.2,-0.1 -4.8,0.4 -4.2,1.3 -7.8,3.7 -10.9,7 -2.8,3.1 -5.2,6.6 -6.9,10.6 -1.7,3.8 -2.9,7.8 -3.5,12.1 -0.6,4.2 -0.6,8.4 0,12.6 0.4,2.6 1,4.9 1.9,6.8 0.9,2 2,3.7 3.2,5.2 1.4,1.6 3,2.7 4.7,3.4 1.8,0.7 3.7,1 5.7,0.8 1.8,-0.2 3.6,-0.8 5.4,-1.8 1.7,-1 3.3,-2.3 4.9,-4.1 0.4,-0.5 0.8,-0.9 1.2,-1.5 -0.2,1.4 0.3,2.7 1.3,3.6 0.9,0.8 2.1,1.1 3.3,1 0.2,0 0.3,-0.1 0.5,-0.1 1.3,-0.4 2.6,-0.8 4,-1.2 1.4,-0.4 2.1,-0.6 3.5,-1 1.3,-0.4 2.4,-0.7 3.4,-1 1,-0.3 1.9,-1 2.4,-1.9 0.3,0.7 0.8,1.4 1.4,1.9 0.9,0.6 1.9,0.9 3,0.7 0.2,0 0.4,-0.1 0.7,-0.2 1.4,-0.5 2.1,-0.7 3.4,-1.2 1.2,-0.4 2.3,-0.8 3.3,-1.2 1.3,-0.4 2.6,-0.8 3.9,-1.2 0.2,0.2 0.4,0.5 0.6,0.7 0.9,0.7 2,1 3.1,0.9 0.3,0 0.5,-0.1 0.8,-0.2 4.3,-1.6 6.6,-2.1 10.8,-3.9 1.6,-0.7 2.7,-2.4 2.7,-4.2 0,-1.9 0,-3.8 0.1,-5.7 0,0 0,-0.1 0,-0.1 0,-1.6 0,-3.4 0.1,-5.3 0,-0.6 0,-1.3 0.1,-1.9 1.8,-0.7 3.5,-1.8 5,-3.2 2.2,-1.9 4.1,-4.3 5.6,-7.2 1.5,-2.8 2.6,-5.9 3.3,-9.2 0.6,-2.7 0.8,-5.4 0.7,-8.1 0.1,0 0.2,0 0.3,0 0,0.3 0,0.7 0,1 0,2.3 -0.1,4.7 -0.2,7.1 -0.1,2.5 -0.2,5 -0.3,7.5 -0.1,2.5 -0.2,4.9 -0.3,7.2 -0.3,5.5 -0.5,11 -0.9,16.4 -0.1,1.5 0.5,3 1.6,3.9 0.9,0.8 2,1.2 3.2,1 0.2,0 0.4,-0.1 0.6,-0.1 4.6,-1.5 7,-2.2 11.6,-3.7 0.8,-0.3 1.6,-0.8 2.1,-1.6 0.2,0.4 0.5,0.8 0.8,1.1 0.9,1 2.2,1.4 3.4,1.2 0.2,0 0.4,-0.1 0.5,-0.1 1.3,-0.4 2.7,-0.8 4.1,-1.2 1.4,-0.4 2.2,-0.6 3.6,-1 1.3,-0.4 2.5,-0.7 3.5,-1 1,-0.3 1.9,-1.1 2.4,-2.1 0.3,0.8 0.8,1.6 1.4,2.1 0.9,0.7 2,1.1 3,0.9 0.2,0 0.4,-0.1 0.7,-0.2 1.4,-0.5 2.1,-0.7 3.5,-1.2 1.2,-0.4 2.4,-0.8 3.4,-1.2 1.1,-0.3 2.2,-0.7 3.3,-1.1 0.3,0.3 0.6,0.6 0.9,0.8 0.8,0.5 1.8,0.7 2.7,0.6 0.4,-0.1 0.7,-0.2 1,-0.4 0.1,0 0.4,-0.2 1,-0.4 0.9,-0.3 2,-0.7 3.2,-1.1 1.1,-0.3 2.2,-0.7 3.3,-0.9 1.4,-0.4 1.8,-0.4 1.9,-0.4 0.9,-0.1 1.8,-0.7 2.4,-1.4 0.3,0.5 0.6,1 1.1,1.4 0.9,0.7 1.9,1.1 3,0.9 0.3,0 0.6,-0.1 0.9,-0.3 3.7,-1.5 5.5,-2.3 9.2,-3.8 0.9,-0.4 1.6,-1 2.1,-1.9 0.4,1.1 1.2,2.1 2.2,2.6 0.7,0.4 1.5,0.5 2.3,0.4 0.5,-0.1 1,-0.2 1.4,-0.5 0.2,-0.1 0.7,-0.4 1.9,-0.9 1.3,-0.5 2,-0.8 3.4,-1.3 1.1,-0.4 2.1,-0.8 3,-1.1 0.6,-0.2 0.9,-0.3 1,-0.4 1.9,-0.4 3.2,-2.2 3.2,-4.3 0,-1.5 0,-3.3 0,-5.6 0,-2.2 0.1,-4.7 0.2,-7.3 0.1,-2.5 0.2,-5.2 0.3,-8.3 0.1,-2.8 0.3,-5.6 0.4,-8.5 0,0 0,0 0,-0.1 0.3,-6.4 0.7,-13.3 1.3,-20.3 -0.3,-1.5 -0.8,-3 -1.9,-4 z m -175,61.6 c -0.5,-0.1 -1,-0.1 -1.5,0 -0.6,0.1 -1.2,0.4 -1.8,0.8 -0.2,0.1 -0.3,0.3 -0.5,0.5 0.1,-0.4 0.1,-0.8 0.2,-1.3 0.3,-1.5 0.6,-3.1 1,-4.7 0.4,-1.6 0.9,-3 1.4,-4.3 0.2,-0.5 0.4,-0.9 0.6,-1.4 0.6,0.2 1.3,0.2 2,0.1 0.3,-0.1 0.7,-0.2 1,-0.4 3,-1.6 4.5,-2.4 7.5,-4.1 -0.4,2.5 -0.7,5 -1.1,7.4 -0.1,0.6 -0.1,0.9 -0.2,1.5 -0.3,2.2 -0.6,4.4 -0.9,6.4 0,0.3 -0.1,0.6 -0.1,0.8 -3,-0.4 -4.5,-0.7 -7.6,-1.3 z m 90.6,-5.7 c 0,-1.6 0,-3.3 0.1,-4.9 0,-2.2 0.1,-4.6 0.1,-6.9 0,-2.3 0.1,-4.7 0.1,-7.1 0.1,-2.3 0.1,-4.6 0.2,-6.8 0,-0.9 0.1,-1.7 0.1,-2.6 1.1,-0.3 2.2,-0.8 3.2,-1.3 0,0.3 -0.1,0.5 -0.1,0.8 -0.4,3.2 -0.8,6.4 -1.3,9.6 -0.1,0.7 -0.1,1.1 -0.2,1.8 -0.3,2.5 -0.6,5 -1,7.3 -0.3,3.4 -0.8,6.8 -1.2,10.1 z" />
		<path
   id="path43"
   d="m 441.4,165.6 c -0.9,-0.9 -2.1,-1.3 -3.3,-1.2 -0.2,0 -0.5,0.1 -0.7,0.1 -0.6,0.2 -1.3,0.4 -2.2,0.6 -1,0.2 -2.1,0.5 -3.1,0.8 -1,0.3 -2,0.6 -3,0.8 -1.1,0.3 -2,0.5 -2.9,0.8 -1.5,0.5 -2.7,1.9 -2.9,3.6 -0.3,3.1 -0.7,6.1 -1,9.2 -0.1,-0.4 -0.2,-0.8 -0.4,-1.3 -0.7,-2.1 -1.6,-4 -2.7,-5.6 -1.3,-1.9 -3,-3.3 -5,-4.3 -2.1,-1.1 -4.6,-1.4 -7.3,-1.1 -2.9,0.4 -5.7,1.5 -8.2,3.4 -2.3,1.8 -4.4,4 -6.2,6.7 -1.6,2.3 -3,5 -4.2,7.8 0,0 0,-0.1 0,-0.1 -0.3,-2.8 -1.2,-5.1 -2.5,-6.9 -1.2,-1.7 -2.6,-3 -4.2,-3.9 -1.6,-0.9 -3.3,-1.5 -5.1,-1.6 -1.5,-0.1 -3,-0.1 -4.3,0.1 -2.8,0.4 -5.4,1.1 -8,2 -2.4,0.9 -4.8,1.9 -7.1,2.9 -1.6,0.7 -2.7,2.5 -2.7,4.5 0,0.2 0,0.4 0,0.6 -0.4,-0.6 -0.9,-1.1 -1.4,-1.6 -1.3,-1.3 -2.9,-2.1 -4.8,-2.6 -1.7,-0.4 -3.5,-0.4 -5.7,-0.1 -3,0.4 -6.1,1.1 -9.1,2 -3.1,0.9 -6,2 -8.6,3.3 -0.1,0 -0.2,0.1 -0.2,0.1 -0.2,-0.3 -0.4,-0.6 -0.7,-0.8 -0.9,-0.9 -2.1,-1.3 -3.3,-1.2 -0.1,0 -0.2,0 -0.3,0 -4,0.8 -6,1.2 -9.9,2 -0.5,0.1 -1,0.3 -1.4,0.6 -0.9,-0.7 -2,-1.1 -3,-0.9 -0.1,0 -0.3,0 -0.4,0.1 -1.3,0.3 -2.6,0.6 -3.9,0.9 -1.1,0.3 -2.3,0.5 -3.5,0.8 -1.2,0.3 -2.3,0.6 -3.1,0.8 -0.3,0.1 -0.6,0.2 -0.9,0.4 0,0 -0.1,-0.1 -0.1,-0.1 -0.9,-0.8 -2,-1.1 -3.1,-1 -0.2,0 -0.3,0.1 -0.5,0.1 -1.6,0.5 -3.2,0.9 -4.9,1.2 -1.7,0.4 -3.5,0.7 -5.5,1.1 -1.9,0.4 -4,0.7 -6.1,1 -1.1,0.2 -2.2,0.3 -3.2,0.4 -1.1,0.1 -2.2,0.2 -3.2,0.3 -0.1,0 -0.2,0 -0.3,0 -1,0.2 -1.9,0.7 -2.5,1.5 -0.7,0.9 -1.1,2.1 -0.9,3.2 0.1,1.2 0.2,2.3 0.3,3.4 0.1,1 0.2,2 0.3,3.1 0.1,0.9 0.2,1.6 0.2,2.3 0.1,2 1.6,3.7 3.4,4 0.9,0.2 1.8,0.2 2.7,0.2 0,0.3 0,0.6 0,0.9 0,2 -0.1,4.2 -0.1,6.4 -0.1,2.3 -0.2,4.6 -0.3,7 -0.1,2.3 -0.2,4.7 -0.4,6.9 -0.3,5.3 -0.7,10.8 -1.1,16.4 -0.1,1.6 0.4,3.1 1.5,4.2 0.9,0.9 2,1.3 3.1,1.2 0.2,0 0.4,-0.1 0.6,-0.1 4.6,-1.4 6.9,-2.2 11.5,-3.6 1.7,-0.5 2.9,-2.3 3,-4.4 0.1,-5.4 0.1,-10.5 0.3,-15.4 0.1,-2.1 0.1,-4.3 0.1,-6.5 0,-2.1 0.1,-4.3 0.1,-6.5 0.1,-2.1 0.1,-4.2 0.2,-6.1 0,-0.8 0.1,-1.6 0.1,-2.3 0.7,-0.2 1.4,-0.3 2.1,-0.6 0,1 -0.1,2.1 -0.1,3.2 -0.1,3.1 -0.2,6.3 -0.3,9.3 -0.1,3.1 -0.1,6.1 -0.2,8.9 -0.1,2.9 -0.1,5.3 0,7.4 0,0.4 0,0.9 0,1.3 0,0.2 0,0.4 0.1,0.6 0.2,2.4 0.9,4.5 1.9,6.4 1,1.7 2.2,3.2 3.5,4.4 1.3,1.1 2.8,2 4.4,2.5 1.5,0.5 3,0.7 4.4,0.7 2.1,-0.1 4.2,-0.6 6.3,-1.4 2.1,-0.9 4,-2.3 5.8,-4.1 1.5,-1.6 2.7,-3.4 3.8,-5.6 -0.1,1 -0.1,2 -0.2,3.1 -0.1,1.7 0.5,3.4 1.7,4.5 0.9,0.8 2,1.2 3,1.1 0.3,0 0.7,-0.1 1,-0.2 4.2,-1.7 6.3,-2.6 10.4,-4.4 1.5,-0.7 2.5,-2.3 2.6,-4.2 0,-0.4 0,-0.9 0.1,-1.3 0.5,1.2 0.9,2.4 1.4,3.6 0.5,1.2 1.4,2.1 2.4,2.6 0.6,0.3 1.3,0.3 1.9,0.2 0.5,-0.1 0.9,-0.2 1.3,-0.5 2.4,-1.5 3.6,-2.2 6,-3.7 0.2,0.6 0.4,1.1 0.7,1.5 0.7,1 1.8,1.6 3,1.6 1.7,0 3.5,-0.2 5.3,-0.7 2,-0.5 4,-1.3 6.1,-2.2 2,-1 4.1,-2.1 6,-3.4 1.9,-1.3 3.8,-2.8 5.5,-4.4 1.8,-1.7 3.4,-3.6 4.7,-5.5 0.5,-0.8 1,-1.6 1.4,-2.5 0.1,0.1 0.1,0.3 0.2,0.4 1,2.3 2.2,4.1 3.6,5.5 1.5,1.4 3.2,2.3 5,2.8 1.8,0.5 3.8,0.4 5.8,0 2.2,-0.5 4.5,-1.6 6.7,-3.2 2.1,-1.5 4.1,-3.4 6,-5.7 1,-1.2 1.9,-2.5 2.8,-3.9 0.2,1 0.5,2 1,2.9 0.6,1.1 1.3,2 2.1,2.8 1,0.9 2.2,1.5 3.6,1.8 1.4,0.3 2.8,0.2 4.3,-0.3 1.8,-0.5 3.4,-1.3 4.7,-2.2 1.4,-1 2.6,-2.1 3.6,-3.4 0.9,-1.3 1.6,-2.7 2,-4.2 0.4,-1.5 0.5,-2.9 0.3,-4.3 -0.3,-2.4 -1.6,-4.4 -3.6,-5.8 0.8,-0.7 1.4,-1.6 1.5,-2.7 1.1,-5.9 2.2,-11.9 3.3,-17.8 1.1,-5.8 2.4,-11.6 3.9,-17.2 0.7,-1.6 0.2,-3.1 -0.8,-4.2 z m -40.1,42.3 c 0,-1.3 0.1,-2.8 0.4,-4.2 0.3,-1.5 0.6,-3.1 1.1,-4.6 0.4,-1.4 0.9,-2.6 1.5,-3.7 0.5,-1 1.1,-1.7 1.8,-2.4 0.2,-0.2 0.4,-0.3 0.7,-0.5 0.1,0.4 0.2,0.8 0.2,1.1 0.2,1.6 0.2,3.5 0,5.6 -0.2,2.1 -0.6,4.2 -1.2,6.2 -0.6,1.8 -1.3,3.3 -2.3,4.6 -0.6,0.7 -1.1,1.2 -1.9,1.4 -0.1,-0.1 -0.1,-0.2 -0.1,-0.2 -0.2,-0.8 -0.2,-1.9 -0.2,-3.3 z m -47.5,14.6 c -0.9,-1.7 -1.8,-3.4 -2.7,-5.2 -0.5,-1 -1,-1.9 -1.5,-2.8 0.6,-0.7 1.2,-1.4 1.7,-2.2 1.2,-1.7 2.2,-3.4 3,-5.3 0,1.2 0,2.4 -0.1,3.6 0,3.9 -0.1,7.9 -0.4,11.9 z" />
		<path
   style="fill:#ef3384"
   id="path45"
   d="m 232.3,168.9 c -0.3,0.8 -0.7,1.5 -1.1,2.2 -0.4,0.7 -0.9,1.2 -1.5,1.7 -0.5,0.5 -1.1,0.7 -1.5,0.8 -0.6,0.1 -1.1,-0.1 -1.6,-0.6 -0.4,-0.5 -0.8,-1.4 -1,-2.8 -0.1,-0.9 -0.1,-2.1 0,-3.5 0.1,-1.5 0.3,-3 0.6,-4.7 0.3,-1.7 0.7,-3.3 1.1,-5 0.5,-1.7 1,-3.3 1.5,-4.7 0.5,-1.4 1.1,-2.6 1.8,-3.6 0.6,-1 1.3,-1.6 2,-1.7 0.7,-0.2 1.4,0.2 2,1.2 3.2,-1.8 4.9,-2.7 8.1,-4.5 0,-0.3 0,-0.6 -0.1,-0.9 0,-0.3 -0.1,-0.5 -0.1,-0.9 -0.2,-1.5 -0.6,-2.7 -1.1,-3.8 -0.6,-1.1 -1.2,-1.9 -2,-2.5 -0.8,-0.6 -1.7,-1 -2.7,-1.2 -1,-0.2 -2,-0.1 -3.1,0.2 -3.3,1 -6.3,2.9 -8.7,5.5 -2.5,2.7 -4.5,5.7 -6,9.2 -1.5,3.5 -2.6,7.2 -3.1,11.1 -0.5,3.9 -0.5,7.8 0,11.7 0.3,2.3 0.9,4.2 1.6,5.8 0.7,1.6 1.6,3 2.5,4.1 1,1.1 2,1.8 3.2,2.3 1.2,0.5 2.4,0.6 3.7,0.4 1.3,-0.2 2.6,-0.6 4,-1.4 1.3,-0.8 2.6,-1.8 3.8,-3.2 1.2,-1.4 2.3,-3.1 3.4,-5.1 1,-2 1.9,-4.3 2.6,-6.9 -3.1,-0.6 -4.7,-0.9 -7.8,-1.6 0,0.8 -0.2,1.6 -0.5,2.4 z m 17.8,-37.8 c -0.3,2.3 -0.6,4.8 -1,7.5 -0.4,2.7 -0.8,5.5 -1.2,8.3 -0.4,2.9 -0.8,5.7 -1.2,8.5 -0.4,2.8 -0.8,5.5 -1.1,8 -0.9,6.1 -1.8,12.1 -2.7,18.2 1.3,-0.4 2.6,-0.8 4,-1.2 1.1,-0.3 2.3,-0.7 3.6,-1.1 1.3,-0.4 2.4,-0.7 3.3,-1 0.5,-4 0.8,-6.1 1.3,-10.2 2.3,-0.4 3.4,-0.7 5.6,-1.1 0,0.9 0.1,2 0.2,3.3 0.1,1.3 0.1,2.6 0.2,3.9 0,1.5 0.1,3 0.1,4.5 1,-0.4 2.2,-0.8 3.4,-1.2 1.3,-0.5 2.4,-0.9 3.5,-1.2 1.3,-0.4 2.5,-0.8 3.8,-1.2 -0.7,-7.2 -1.4,-14 -2,-20.5 -0.2,-2.8 -0.5,-5.7 -0.7,-8.6 -0.2,-2.9 -0.4,-5.8 -0.6,-8.5 -0.2,-2.8 -0.3,-5.3 -0.5,-7.7 -0.1,-2.4 -0.2,-4.4 -0.2,-6.1 -2.8,1.4 -5.8,2.7 -8.8,3.9 -3.1,1.3 -6.1,2.4 -9,3.5 z m 9.4,11.2 c 0.1,2.8 0.2,5.5 0.3,7.9 0,1 0.1,2 0.1,3 0,1 0.1,2 0.1,2.9 0,0.9 0.1,1.6 0.1,2.3 0,0.7 0.1,1.2 0.1,1.4 -0.2,0.1 -0.5,0.2 -0.9,0.3 -0.4,0.1 -0.9,0.2 -1.4,0.4 -0.5,0.1 -1,0.2 -1.4,0.4 -0.5,0.1 -0.8,0.2 -0.9,0.2 0.7,-7.2 1,-10.8 1.8,-18.3 0.3,-2.6 0.4,-3.9 0.7,-6.5 0.4,-0.1 0.6,-0.2 1,-0.3 0.2,2.6 0.3,3.8 0.4,6.3 z m 38.7,-21.5 c -1,-1.1 -2.1,-1.9 -3.5,-2.3 -1.4,-0.4 -3.1,-0.3 -5,0.3 -1.1,0.4 -2.3,0.8 -3.5,1.3 -1.2,0.5 -2.4,1.1 -3.6,1.6 -1.2,0.6 -2.4,1.3 -3.6,2 -0.1,2.4 -0.2,5 -0.3,7.8 -0.1,2.8 -0.3,5.7 -0.4,8.6 -0.1,2.9 -0.3,5.9 -0.5,8.9 -0.2,3 -0.3,5.8 -0.5,8.4 -0.4,6.3 -0.8,12.6 -1.2,19.1 4.3,-1.6 6.5,-2.4 10.8,-3.9 0,-1.9 0.1,-3.8 0.1,-5.7 0,-1.6 0,-3.4 0.1,-5.4 0.1,-1.9 0.1,-3.8 0.3,-5.4 0.3,0 0.4,-0.1 0.7,-0.1 2,-0.5 4,-1.6 5.7,-3.2 1.8,-1.6 3.3,-3.6 4.5,-5.9 1.3,-2.3 2.2,-4.9 2.8,-7.8 0.6,-2.8 0.7,-5.7 0.4,-8.6 -0.2,-2 -0.6,-3.9 -1.1,-5.5 -0.5,-1.7 -1.2,-3.1 -2.2,-4.2 z m -5.6,17.8 c -0.2,1.6 -0.6,3.1 -1.1,4.5 -0.5,1.3 -1.1,2.4 -1.8,3.3 -0.7,0.9 -1.3,1.6 -2,1.9 0.2,-3.4 0.3,-6.6 0.4,-9.6 0.1,-3 0.3,-6.3 0.4,-9.8 0.9,-0.3 1.7,0 2.5,0.7 0.8,0.8 1.3,2.1 1.5,3.9 0.3,1.7 0.3,3.4 0.1,5.1 z m 34.3,-16 c 0.1,-0.9 0.1,-2 0.2,-3.4 0.1,-1.3 0.1,-2.6 0.2,-3.9 0.1,-1.8 0.2,-2.7 0.3,-4.5 -1.7,0.5 -3.4,1 -5.2,1.5 -1.8,0.5 -3.7,1 -5.8,1.5 -2.1,0.5 -4.2,1 -6.5,1.5 -1.1,0.2 -2.3,0.5 -3.4,0.7 -1.1,0.2 -2.3,0.4 -3.4,0.6 0.1,1.4 0.2,2.7 0.3,3.9 0.1,1.1 0.2,2.2 0.3,3.3 0.1,1.1 0.2,2.1 0.2,2.9 1,0.1 2.1,0.1 3.1,-0.2 1,-0.3 2,-0.4 3.1,-0.5 0,2 0,4.2 -0.1,6.5 -0.1,2.3 -0.1,4.8 -0.2,7.3 -0.1,2.5 -0.2,5 -0.3,7.6 -0.1,2.5 -0.2,5 -0.3,7.3 -0.3,5.5 -0.5,11 -0.9,16.6 4.6,-1.5 7,-2.3 11.6,-3.8 -0.1,-5.4 0,-10.7 0.1,-15.8 0,-2.2 0.1,-4.5 0.1,-6.9 0,-2.4 0.1,-4.8 0.1,-7.1 0.1,-2.4 0.1,-4.7 0.3,-6.9 0.1,-2.2 0.2,-4.3 0.3,-6.1 0.9,-0.4 1.9,-0.7 2.9,-1 1,-0.3 2,-0.6 3,-1.1 z m 7.6,-11.1 c -0.3,2.5 -0.6,5.2 -1,8.2 -0.4,3 -0.8,6 -1.2,9.2 -0.4,3.2 -0.8,6.4 -1.3,9.5 -0.4,3.2 -0.8,6.2 -1.2,9.1 -0.9,6.9 -1.9,13.8 -2.8,20.7 1.3,-0.4 2.7,-0.8 4.1,-1.2 1.1,-0.3 2.3,-0.7 3.7,-1 1.3,-0.4 2.4,-0.7 3.4,-1 0.5,-4.5 0.8,-6.8 1.3,-11.4 2.3,-0.3 3.5,-0.5 5.8,-0.8 0,1 0.1,2.3 0.2,3.7 0.1,1.4 0.1,2.9 0.2,4.3 0,1.6 0.1,3.3 0.1,5 1,-0.4 2.2,-0.8 3.5,-1.2 1.3,-0.5 2.5,-0.9 3.5,-1.2 1.3,-0.4 2.6,-0.8 3.9,-1.2 -0.7,-7.9 -1.4,-15.4 -2,-22.4 -0.2,-3 -0.5,-6.1 -0.7,-9.3 -0.2,-3.2 -0.5,-6.2 -0.7,-9.1 -0.2,-2.9 -0.4,-5.6 -0.5,-8.1 -0.1,-2.5 -0.2,-4.6 -0.3,-6.3 -2.9,0.9 -5.8,1.7 -8.9,2.4 -3.1,0.7 -6.1,1.4 -9.1,2.1 z m 9.6,13.9 c 0.1,3.1 0.2,6 0.3,8.7 0,1.1 0.1,2.2 0.1,3.4 0,1.1 0.1,2.2 0.1,3.2 0,1 0.1,1.8 0.1,2.6 0,0.8 0.1,1.3 0.1,1.6 -0.2,0.1 -0.5,0.2 -0.9,0.2 -0.4,0.1 -0.9,0.2 -1.4,0.3 -0.5,0.1 -1,0.2 -1.4,0.3 -0.5,0.1 -0.8,0.2 -1,0.2 0.7,-8 1.1,-12 1.8,-20.1 0.3,-2.8 0.4,-4.2 0.7,-7 0.4,-0.1 0.6,-0.1 1,-0.2 0.3,2.7 0.4,4 0.5,6.8 z m 17.7,-16 c -0.1,7 -0.2,13.8 -0.3,20.4 -0.1,2.8 -0.1,5.8 -0.2,8.8 -0.1,3 -0.2,6.1 -0.3,9 -0.1,3 -0.3,5.8 -0.4,8.5 -0.1,2.7 -0.3,5.2 -0.5,7.4 0.1,-0.1 0.6,-0.3 1.6,-0.6 1,-0.3 2,-0.7 3.2,-1.1 1.2,-0.4 2.3,-0.7 3.4,-1 1.1,-0.3 1.9,-0.5 2.3,-0.5 0,-2.2 0.1,-4.7 0.1,-7.5 0,-2.8 0.1,-5.6 0.1,-8.6 0.1,-2.9 0.1,-5.9 0.2,-8.9 0.1,-3 0.1,-5.9 0.2,-8.7 0.1,-6.5 0.3,-13.2 0.5,-20 -4.1,1.2 -6,1.7 -9.9,2.8 z m 36.5,-4.5 c -0.2,3.3 -0.5,6.5 -0.7,9.7 -0.1,1.4 -0.2,2.8 -0.2,4.2 -0.1,1.4 -0.1,2.8 -0.2,4.3 -0.1,1.4 -0.2,2.8 -0.2,4.1 -0.1,1.3 -0.1,2.4 -0.2,3.4 -0.7,-2 -1.4,-4.4 -2.3,-7.3 -0.9,-2.9 -1.8,-5.7 -2.6,-8.4 -0.9,-3.1 -1.8,-6.4 -2.9,-9.7 -1,0.1 -1.9,0.2 -2.8,0.3 -0.9,0.1 -1.7,0.2 -2.6,0.2 -0.9,0.1 -1.6,0.1 -2.2,0.1 -0.5,0 -0.8,0 -1.4,0.1 -0.4,0 -0.9,0 -1.4,0 0.1,2.2 0.1,4.7 0.1,7.5 0,2.8 0,5.7 -0.1,8.7 -0.1,3 -0.2,6.1 -0.3,9.2 -0.1,3.1 -0.2,6.2 -0.3,9.1 -0.3,6.7 -0.7,13.9 -1.2,21.2 3.7,-1.5 5.5,-2.3 9.2,-3.8 0.2,-3.7 0.4,-7.2 0.5,-10.5 0.1,-1.4 0.2,-2.9 0.2,-4.4 0,-1.5 0.1,-3 0.1,-4.4 0,-1.4 0.1,-2.7 0.2,-3.9 0.1,-1.2 0.1,-2.3 0.1,-3.3 0.3,0.9 0.6,2 0.9,3.2 0.3,1.3 0.7,2.6 1,4 0.4,1.4 0.7,3 1.1,4.5 0.4,1.6 0.7,3.1 1,4.6 0.7,3.5 1.5,7.1 2.3,11 0.5,-0.3 1.4,-0.7 2.5,-1.1 1.1,-0.4 2.2,-0.9 3.4,-1.3 1.1,-0.4 2.1,-0.8 3,-1.1 0.9,-0.3 1.4,-0.5 1.5,-0.5 0,-1.5 0,-3.5 0,-5.8 0,-2.3 0.1,-4.8 0.2,-7.5 0.1,-2.7 0.2,-5.5 0.3,-8.4 0.1,-2.9 0.3,-5.8 0.4,-8.6 0.3,-6.5 0.7,-13.4 1.3,-20.6 -3,0.5 -4.5,0.7 -7.7,1.2 z"
   class="st4" />
		<path
   style="fill:#49bcf8"
   id="path47"
   d="m 291.2,197.9 c 0,-1.1 0.1,-2.3 0.2,-3.4 0.1,-1.6 0.1,-2.3 0.2,-3.9 -1.6,0.5 -3.3,0.9 -5,1.3 -1.7,0.4 -3.6,0.7 -5.6,1.1 -2,0.4 -4.1,0.7 -6.4,1 -1.1,0.2 -2.3,0.3 -3.4,0.4 -1.1,0.1 -2.3,0.2 -3.4,0.3 0.1,1.2 0.2,2.3 0.3,3.4 0.1,1 0.2,1.9 0.3,2.9 0.1,1 0.2,1.8 0.3,2.6 1,0.2 2.1,0.2 3.1,0 1,-0.2 2,-0.3 3,-0.3 0,1.7 0,3.7 0,5.8 0,2.1 -0.1,4.3 -0.1,6.6 -0.1,2.3 -0.2,4.6 -0.3,7 -0.1,2.4 -0.2,4.7 -0.4,6.9 -0.3,5.3 -0.7,10.8 -1.1,16.5 4.6,-1.4 6.9,-2.2 11.5,-3.6 0.1,-5.4 0.1,-10.6 0.3,-15.5 0.1,-2.1 0.1,-4.2 0.1,-6.5 0,-2.2 0.1,-4.4 0.1,-6.6 0.1,-2.1 0.1,-4.2 0.2,-6.2 0.1,-2 0.2,-3.8 0.3,-5.4 0.9,-0.3 1.9,-0.6 2.8,-0.8 0.9,-0.2 1.9,-0.5 2.8,-0.9 0.1,-0.6 0.2,-1.6 0.2,-2.7 z m 29.8,-3.4 c 0.1,-2.2 0.2,-4.6 0.3,-7.2 -4,0.8 -6,1.2 -9.9,1.9 -0.1,4.7 -0.3,9.3 -0.5,13.7 -0.1,1.9 -0.1,3.9 -0.2,5.9 -0.1,2 -0.2,4 -0.3,5.9 -0.1,1.9 -0.2,3.8 -0.3,5.6 -0.1,1.8 -0.2,3.5 -0.3,4.9 -0.1,0.6 -0.1,1.3 -0.2,2.3 0,1 -0.2,2 -0.4,3 -0.2,1 -0.5,1.8 -0.9,2.6 -0.4,0.7 -1,1.1 -1.7,1.1 -0.5,0 -1,-0.2 -1.4,-0.7 -0.4,-0.5 -0.7,-1.2 -0.8,-2 -0.1,-1 -0.1,-2.1 -0.1,-3.4 0.1,-1.2 0.1,-2.3 0.2,-3.1 0.1,-0.8 0.1,-1.9 0.2,-3.2 0.1,-1.3 0.2,-2.8 0.3,-4.6 0.1,-1.8 0.2,-3.7 0.3,-5.8 0.1,-2.1 0.2,-4.2 0.4,-6.3 0.3,-4.9 0.6,-10.3 1,-16.4 -1.3,0.3 -2.6,0.6 -3.9,0.9 -1.1,0.2 -2.2,0.5 -3.5,0.8 -1.2,0.3 -2.3,0.6 -3.2,0.8 0,0.4 -0.1,1.4 -0.2,3.1 -0.1,1.7 -0.2,3.8 -0.3,6.3 -0.1,2.5 -0.2,5.3 -0.3,8.4 -0.1,3.1 -0.2,6.2 -0.3,9.3 -0.1,3.1 -0.1,6.1 -0.2,9 -0.1,2.9 -0.1,5.4 0,7.5 0,0.2 0,0.4 0,0.6 0,0.2 0,0.4 0.1,0.6 0.2,1.6 0.6,2.9 1.2,4.1 0.7,1.2 1.4,2.1 2.3,2.9 0.9,0.8 1.9,1.3 3,1.7 1.1,0.4 2.1,0.5 3.1,0.5 1.7,-0.1 3.4,-0.4 5,-1.1 1.6,-0.7 3.2,-1.8 4.5,-3.2 1.4,-1.4 2.5,-3.2 3.4,-5.4 0.9,-2.1 1.3,-3.2 1.3,-3.2 0,0 0.2,-1.5 0.4,-4.5 0.2,-2.5 0.4,-5.2 0.5,-8.2 0.2,-3 0.3,-6 0.5,-9 0.2,-3 0.3,-6 0.4,-8.8 0.3,-2.6 0.4,-5.1 0.5,-7.3 z m 30,9.4 c 0.8,-1.9 1.4,-3.9 1.8,-5.9 0.4,-2 0.4,-4.1 0.2,-6.1 -0.2,-1.4 -0.5,-2.6 -0.9,-3.6 -0.4,-1.1 -1,-2 -1.7,-2.7 -0.7,-0.7 -1.7,-1.2 -2.9,-1.5 -1.2,-0.3 -2.6,-0.3 -4.3,0 -2.9,0.4 -5.7,1 -8.6,1.8 -2.9,0.8 -5.5,1.8 -7.9,3 0.1,2.2 0.1,4.7 0,7.4 0,2.7 -0.1,5.6 -0.1,8.5 -0.1,2.9 -0.1,5.9 -0.3,8.9 -0.1,3 -0.2,5.9 -0.3,8.7 -0.2,6.5 -0.7,13.4 -1.1,20.4 4.2,-1.7 6.3,-2.5 10.4,-4.3 0.1,-2.5 0.2,-5 0.3,-7.5 0.1,-2.1 0.2,-4.3 0.3,-6.5 0.1,-2.2 0.2,-4.2 0.3,-5.9 0.3,-0.2 0.5,-0.2 0.8,-0.4 0.1,0.6 0.3,1.3 0.6,2.1 0.3,0.9 0.6,1.9 1,2.9 0.4,1.1 0.8,2.2 1.3,3.5 0.5,1.2 0.9,2.4 1.4,3.5 1.1,2.7 2.2,5.7 3.5,8.9 3.9,-2.3 5.9,-3.5 9.7,-5.9 -1.2,-2.3 -2.4,-4.7 -3.6,-7.1 -1,-2 -2.2,-4.2 -3.4,-6.5 -1.2,-2.3 -2.3,-4.4 -3.4,-6.3 1.4,-1.1 2.7,-2.5 3.9,-4.2 1.2,-1.5 2.2,-3.3 3,-5.2 z m -5.9,-4.1 c -0.7,1.2 -1.5,2.3 -2.5,3.5 -1,1.1 -2,2.1 -3.2,3 -1.1,0.9 -2.1,1.4 -2.9,1.6 0.3,-4.9 0.4,-7.4 0.6,-12.3 0.4,-0.1 0.8,-0.1 1.4,-0.2 0.5,-0.1 1,-0.2 1.5,-0.2 0.7,-0.1 1.4,-0.2 2.1,-0.2 0.7,0 1.3,0 1.9,0.1 0.6,0.1 1,0.3 1.4,0.6 0.3,0.3 0.6,0.7 0.6,1.3 0.1,0.6 -0.2,1.6 -0.9,2.8 z m 37.6,-17.9 c -0.8,-1.2 -1.8,-2.1 -2.9,-2.7 -1.1,-0.6 -2.3,-1 -3.5,-1.1 -1.2,-0.1 -2.4,-0.1 -3.5,0.1 -2.6,0.4 -5,1 -7.4,1.9 -2.4,0.9 -4.6,1.9 -6.8,2.8 0,9.2 -0.1,18.4 -0.3,27.6 -0.1,9.2 -0.7,18.3 -1.8,27.6 1.4,0 2.9,-0.2 4.5,-0.5 1.8,-0.4 3.6,-1.1 5.4,-1.9 1.8,-0.9 3.6,-1.9 5.4,-3 1.7,-1.2 3.4,-2.4 4.9,-3.9 1.5,-1.4 2.8,-3 3.9,-4.6 1.1,-1.7 1.9,-3.4 2.4,-5.3 0.5,-1.9 0.7,-3.8 0.4,-5.8 -0.2,-1.5 -0.5,-2.7 -1,-3.8 -0.5,-1.1 -1,-2 -1.6,-2.8 -0.6,-0.8 -1.3,-1.4 -2,-1.9 -0.7,-0.5 -1.3,-0.9 -1.9,-1.1 1.1,-0.7 2.1,-1.6 3,-2.8 1,-1.2 1.8,-2.5 2.5,-3.9 0.7,-1.5 1.2,-3.1 1.5,-4.8 0.3,-1.7 0.4,-3.5 0.2,-5.3 0,-2 -0.6,-3.6 -1.4,-4.8 z m -7.6,33.1 c -0.5,1 -1.3,1.9 -2.1,2.6 -0.9,0.7 -1.8,1.3 -2.8,1.8 -1,0.5 -1.9,0.9 -2.7,1.1 0,-1.3 0,-2.4 0.1,-3.3 0,-1 0.1,-1.9 0.1,-2.7 0,-0.9 0.1,-1.8 0.1,-2.7 0,-1 0.1,-2 0.1,-3.3 0.2,-0.1 0.3,-0.1 0.5,-0.2 0.2,0 0.3,-0.1 0.5,-0.1 0.6,-0.1 1.3,-0.2 2.1,-0.2 0.7,0 1.5,0.2 2.1,0.4 0.7,0.3 1.2,0.7 1.7,1.2 0.5,0.5 0.8,1.2 0.9,2.1 0.2,1.2 0,2.3 -0.6,3.3 z M 375,194.2 c -0.4,0.6 -0.9,1.1 -1.6,1.7 -0.7,0.6 -1.5,1.1 -2.4,1.6 -0.9,0.5 -1.8,1 -2.7,1.4 0,-0.6 0,-1.3 0.1,-2.2 0.1,-0.8 0.1,-1.7 0.1,-2.5 0,-0.8 0.1,-1.7 0.1,-2.4 0,-0.8 0,-1.4 0.1,-2 0.3,0 0.4,-0.1 0.6,-0.1 0.5,-0.1 1.1,-0.1 1.8,-0.1 0.7,0 1.3,0.1 2,0.3 0.7,0.2 1.2,0.5 1.7,0.9 0.4,0.4 0.7,1 0.8,1.7 0,0.6 -0.2,1.2 -0.6,1.7 z m 44.3,-8.7 c -0.2,-1.7 -0.6,-3.4 -1.1,-5.1 -0.5,-1.7 -1.2,-3.1 -2.1,-4.4 -0.9,-1.3 -2,-2.3 -3.4,-2.9 -1.4,-0.7 -3.1,-0.9 -5,-0.6 -2.3,0.3 -4.4,1.2 -6.3,2.7 -1.9,1.5 -3.7,3.4 -5.3,5.7 -1.6,2.3 -3,5 -4.2,7.9 -1.2,2.9 -2.1,5.9 -2.8,9.1 -0.7,3.1 -1.1,6.3 -1.4,9.4 -0.2,3.1 -0.2,6 0.2,8.7 0.3,2.6 0.9,4.8 1.6,6.5 0.7,1.7 1.6,3.1 2.6,4.1 1,1 2.2,1.6 3.4,1.9 1.3,0.3 2.6,0.3 4.1,0 1.7,-0.4 3.4,-1.2 5.2,-2.5 1.8,-1.2 3.5,-2.8 5.1,-4.8 1.6,-2 3.1,-4.2 4.5,-6.8 1.4,-2.5 2.5,-5.3 3.4,-8.3 0.9,-3 1.5,-6.3 1.8,-9.7 0.3,-3.5 0.2,-7.1 -0.3,-10.9 z m -8.2,14.1 c -0.2,2.5 -0.7,4.9 -1.4,7.2 -0.7,2.3 -1.8,4.3 -3.1,6.1 -1.3,1.8 -3,2.9 -5,3.3 -0.5,0.1 -1,0.1 -1.5,-0.2 -0.5,-0.2 -0.9,-0.5 -1.3,-0.9 -0.4,-0.4 -0.7,-0.8 -0.9,-1.3 -0.2,-0.5 -0.4,-1.1 -0.5,-1.6 -0.1,-1.1 -0.2,-2.5 -0.2,-4.1 0,-1.6 0.2,-3.3 0.5,-5 0.3,-1.7 0.7,-3.5 1.2,-5.2 0.5,-1.7 1.1,-3.3 1.9,-4.7 0.8,-1.4 1.7,-2.6 2.8,-3.6 1.1,-1 2.3,-1.5 3.7,-1.8 0.7,-0.1 1.3,0 1.7,0.3 0.5,0.3 0.8,0.8 1.1,1.3 0.3,0.5 0.5,1.1 0.6,1.8 0.2,0.6 0.3,1.2 0.3,1.8 0.3,1.9 0.3,4.1 0.1,6.6 z m 25.1,-30.4 c -1,0.3 -2,0.5 -3,0.8 -1,0.3 -2.1,0.6 -3.1,0.9 -1,0.3 -1.9,0.5 -2.7,0.8 -0.6,5.8 -1.2,11.5 -1.7,17.3 -0.5,5.8 -1.1,11.5 -1.7,17.3 1.2,-0.4 2.5,-0.7 3.7,-1.1 1.2,-0.4 2.5,-0.7 3.7,-1 1.1,-6.1 2.2,-12.1 3.3,-18.1 1.1,-6 2.4,-11.9 4,-17.7 -0.7,0.3 -1.5,0.6 -2.5,0.8 z m -11,41.1 c -1.1,0.3 -2,0.7 -2.8,1.3 -0.7,0.6 -1.3,1.2 -1.8,2 -0.5,0.7 -0.8,1.5 -0.9,2.4 -0.2,0.8 -0.2,1.7 -0.1,2.6 0.1,0.8 0.3,1.5 0.7,2.2 0.4,0.7 0.8,1.3 1.3,1.8 0.5,0.5 1.2,0.8 2,1 0.8,0.2 1.6,0.1 2.5,-0.1 1.3,-0.4 2.5,-0.9 3.5,-1.5 1,-0.7 1.8,-1.4 2.3,-2.2 0.6,-0.8 1,-1.7 1.3,-2.6 0.2,-0.9 0.3,-1.8 0.2,-2.6 -0.2,-1.5 -1,-2.7 -2.4,-3.6 -1.4,-1.1 -3.3,-1.3 -5.8,-0.7 z"
   class="st2" />
	</g>
</g>
</svg>